<svg width="30" height="30" viewBox="0 0 30 30" fill="none" xmlns="http://www.w3.org/2000/svg">
<path fill-rule="evenodd" clip-rule="evenodd" d="M15 2.5C10.8579 2.5 7.5 5.85786 7.5 10C7.5 14.1421 10.8579 17.5 15 17.5C19.1421 17.5 22.5 14.1421 22.5 10C22.5 5.85786 19.1421 2.5 15 2.5ZM5 10C5 4.47715 9.47715 0 15 0C20.5228 0 25 4.47715 25 10C25 15.5228 20.5228 20 15 20C9.47715 20 5 15.5228 5 10Z" fill="#161719"/>
<path fill-rule="evenodd" clip-rule="evenodd" d="M19.5731 16.1106C20.2575 16.0198 20.8859 16.501 20.9767 17.1853L22.4892 28.5853C22.5523 29.0611 22.3374 29.5311 21.9363 29.7945C21.5351 30.058 21.0185 30.0686 20.6069 29.8216L15 26.4575L9.39315 29.8216C8.98156 30.0686 8.46491 30.058 8.06373 29.7945C7.66256 29.531 7.44771 29.061 7.51091 28.5852L9.02341 17.1977C9.11431 16.5133 9.74277 16.0322 10.4271 16.1231C11.1115 16.214 11.5925 16.8425 11.5016 17.5268L10.3306 26.3437L14.3569 23.9279C14.7528 23.6904 15.2473 23.6904 15.6432 23.9279L19.6699 26.3439L18.4984 17.5142C18.4076 16.8298 18.8888 16.2014 19.5731 16.1106Z" fill="#161719"/>
</svg>
