<svg width="25" height="25" viewBox="0 0 25 25" fill="none" xmlns="http://www.w3.org/2000/svg">
<path fill-rule="evenodd" clip-rule="evenodd" d="M7.34401 3.17767C8.71146 1.81022 10.5661 1.04199 12.5 1.04199C14.4339 1.04199 16.2885 1.81022 17.656 3.17767C19.0234 4.54512 19.7917 6.39979 19.7917 8.33366C19.7917 11.826 20.5386 13.9947 21.227 15.2567C21.5726 15.8904 21.9091 16.306 22.1429 16.5528C22.2601 16.6765 22.3521 16.7585 22.4076 16.8047C22.4353 16.8278 22.4539 16.842 22.4619 16.8479C22.4632 16.8489 22.4642 16.8496 22.4649 16.8501C22.8383 17.1066 23.0036 17.5758 22.872 18.0105C22.7389 18.4498 22.334 18.7503 21.875 18.7503H3.125C2.66597 18.7503 2.26105 18.4498 2.12803 18.0105C1.99642 17.5758 2.16167 17.1066 2.53509 16.8501C2.53582 16.8496 2.53682 16.8489 2.53807 16.8479C2.54609 16.842 2.56469 16.8278 2.59242 16.8047C2.64785 16.7585 2.73992 16.6765 2.85708 16.5528C3.09086 16.306 3.42741 15.8904 3.77302 15.2567C4.46139 13.9947 5.20833 11.826 5.20833 8.33366C5.20833 6.39979 5.97656 4.54512 7.34401 3.17767ZM2.54562 16.843C2.5457 16.8429 2.54579 16.8429 2.54587 16.8428C2.54586 16.8428 2.54586 16.8428 2.54585 16.8428L2.54562 16.843ZM5.36388 16.667H19.6361C19.5569 16.5371 19.4773 16.3997 19.398 16.2543C18.5239 14.6518 17.7083 12.133 17.7083 8.33366C17.7083 6.95232 17.1596 5.62756 16.1828 4.65081C15.2061 3.67406 13.8813 3.12533 12.5 3.12533C11.1187 3.12533 9.7939 3.67406 8.81715 4.65081C7.8404 5.62756 7.29167 6.95232 7.29167 8.33366C7.29167 12.133 6.47611 14.6518 5.60197 16.2543C5.5227 16.3997 5.44314 16.5371 5.36388 16.667Z" fill="#161719"/>
<path fill-rule="evenodd" clip-rule="evenodd" d="M10.1753 20.9738C10.6729 20.6851 11.3103 20.8545 11.599 21.3522C11.6906 21.51 11.822 21.641 11.9801 21.7321C12.1383 21.8232 12.3176 21.8712 12.5 21.8712C12.6825 21.8712 12.8618 21.8232 13.02 21.7321C13.1781 21.641 13.3095 21.51 13.4011 21.3522C13.6898 20.8545 14.3272 20.6851 14.8248 20.9738C15.3224 21.2625 15.4918 21.8999 15.2032 22.3975C14.9285 22.8711 14.5342 23.2642 14.0598 23.5374C13.5854 23.8107 13.0475 23.9545 12.5 23.9545C11.9526 23.9545 11.4147 23.8107 10.9403 23.5374C10.4659 23.2642 10.0716 22.8711 9.79692 22.3975C9.50826 21.8999 9.67766 21.2625 10.1753 20.9738Z" fill="#161719"/>
</svg>
