<svg width="25" height="25" viewBox="0 0 25 25" fill="none" xmlns="http://www.w3.org/2000/svg">
<path fill-rule="evenodd" clip-rule="evenodd" d="M7.29163 4.16634C7.01536 4.16634 6.75041 4.27609 6.55506 4.47144C6.35971 4.66679 6.24996 4.93174 6.24996 5.20801V19.8505L11.8945 15.8187C12.2567 15.56 12.7432 15.56 13.1054 15.8187L18.75 19.8505V5.20801C18.75 4.93174 18.6402 4.66679 18.4449 4.47144C18.2495 4.27609 17.9846 4.16634 17.7083 4.16634H7.29163ZM5.08192 2.9983C5.66797 2.41225 6.46282 2.08301 7.29163 2.08301H17.7083C18.5371 2.08301 19.332 2.41225 19.918 2.9983C20.5041 3.58435 20.8333 4.37921 20.8333 5.20801V21.8747C20.8333 22.2649 20.6152 22.6223 20.2683 22.8009C19.9213 22.9794 19.5037 22.9491 19.1862 22.7223L12.5 17.9465L5.81375 22.7223C5.49623 22.9491 5.07859 22.9794 4.73165 22.8009C4.3847 22.6223 4.16663 22.2649 4.16663 21.8747V5.20801C4.16663 4.37921 4.49587 3.58435 5.08192 2.9983Z" fill="#6B6969"/>
</svg>
