<svg width="17" height="25" viewBox="0 0 17 25" fill="none" xmlns="http://www.w3.org/2000/svg">
<path fill-rule="evenodd" clip-rule="evenodd" d="M3.29163 2.16634C3.01536 2.16634 2.75041 2.27609 2.55506 2.47144C2.35971 2.66679 2.24996 2.93174 2.24996 3.20801V17.8505L7.8945 13.8187C8.25669 13.56 8.74323 13.56 9.10542 13.8187L14.75 17.8505V3.20801C14.75 2.93174 14.6402 2.66679 14.4449 2.47144C14.2495 2.27609 13.9846 2.16634 13.7083 2.16634H3.29163ZM1.08192 0.998299C1.66797 0.412248 2.46282 0.0830078 3.29163 0.0830078H13.7083C14.5371 0.0830078 15.332 0.412248 15.918 0.998299C16.5041 1.58435 16.8333 2.37921 16.8333 3.20801V19.8747C16.8333 20.2649 16.6152 20.6223 16.2683 20.8009C15.9213 20.9794 15.5037 20.9491 15.1862 20.7223L8.49996 15.9465L1.81375 20.7223C1.49623 20.9491 1.07859 20.9794 0.731645 20.8009C0.384696 20.6223 0.166626 20.2649 0.166626 19.8747V3.20801C0.166626 2.37921 0.495866 1.58435 1.08192 0.998299Z" fill="#161719"/>
</svg>
