<svg width="30" height="30" viewBox="0 0 30 30" fill="none" xmlns="http://www.w3.org/2000/svg">
<path fill-rule="evenodd" clip-rule="evenodd" d="M3.75 6.25C3.05964 6.25 2.5 6.80964 2.5 7.5V22.5C2.5 23.1904 3.05964 23.75 3.75 23.75H26.25C26.9404 23.75 27.5 23.1904 27.5 22.5V7.5C27.5 6.80964 26.9404 6.25 26.25 6.25H3.75ZM0 7.5C0 5.42893 1.67893 3.75 3.75 3.75H26.25C28.3211 3.75 30 5.42893 30 7.5V22.5C30 24.5711 28.3211 26.25 26.25 26.25H3.75C1.67893 26.25 0 24.5711 0 22.5V7.5Z" fill="#161719"/>
<path fill-rule="evenodd" clip-rule="evenodd" d="M0 12.5C0 11.8096 0.559644 11.25 1.25 11.25H28.75C29.4404 11.25 30 11.8096 30 12.5C30 13.1904 29.4404 13.75 28.75 13.75H1.25C0.559644 13.75 0 13.1904 0 12.5Z" fill="#161719"/>
</svg>
