<svg width="12" height="12" viewBox="0 0 12 12" fill="none" xmlns="http://www.w3.org/2000/svg">
<path fill-rule="evenodd" clip-rule="evenodd" d="M5.5 10C5.5 9.72386 5.72386 9.5 6 9.5H10.5C10.7761 9.5 11 9.72386 11 10C11 10.2761 10.7761 10.5 10.5 10.5H6C5.72386 10.5 5.5 10.2761 5.5 10Z" fill="#FF9901"/>
<path fill-rule="evenodd" clip-rule="evenodd" d="M9.00001 1.93945C8.85131 1.93945 8.70871 1.99852 8.60356 2.10367L2.45149 8.25574L2.18719 9.31293L3.24439 9.04863L9.39646 2.89656C9.44852 2.8445 9.48982 2.78269 9.51799 2.71467C9.54617 2.64665 9.56067 2.57374 9.56067 2.50011C9.56067 2.42649 9.54617 2.35358 9.51799 2.28556C9.48982 2.21754 9.44852 2.15573 9.39646 2.10367C9.34439 2.0516 9.28259 2.01031 9.21457 1.98213C9.14654 1.95395 9.07364 1.93945 9.00001 1.93945ZM7.89646 1.39656C8.18914 1.10388 8.5861 0.939453 9.00001 0.939453C9.20496 0.939453 9.4079 0.979821 9.59725 1.05825C9.7866 1.13668 9.95864 1.25164 10.1036 1.39656C10.2485 1.54148 10.3634 1.71353 10.4419 1.90287C10.5203 2.09222 10.5607 2.29516 10.5607 2.50011C10.5607 2.70506 10.5203 2.908 10.4419 3.09735C10.3634 3.2867 10.2485 3.45875 10.1036 3.60367L3.85356 9.85367C3.78948 9.91775 3.70919 9.96321 3.62128 9.98518L1.62128 10.4852C1.45089 10.5278 1.27065 10.4779 1.14646 10.3537C1.02227 10.2295 0.972342 10.0492 1.01494 9.87885L1.51494 7.87885C1.53692 7.79093 1.58238 7.71064 1.64646 7.64656L7.89646 1.39656Z" fill="#FF9901"/>
</svg>
