<svg width="30" height="30" viewBox="0 0 30 30" fill="none" xmlns="http://www.w3.org/2000/svg">
<path fill-rule="evenodd" clip-rule="evenodd" d="M14.441 1.38197C14.7929 1.20601 15.2071 1.20601 15.559 1.38197L28.059 7.63197C28.4825 7.84371 28.75 8.27654 28.75 8.75C28.75 9.22347 28.4825 9.6563 28.059 9.86804L15.559 16.118C15.2071 16.294 14.7929 16.294 14.441 16.118L1.94098 9.86804C1.5175 9.6563 1.25 9.22347 1.25 8.75C1.25 8.27654 1.5175 7.84371 1.94098 7.63197L14.441 1.38197ZM5.29508 8.75L15 13.6025L24.7049 8.75L15 3.89754L5.29508 8.75Z" fill="#FF9901"/>
<path fill-rule="evenodd" clip-rule="evenodd" d="M1.382 20.6913C1.69073 20.0738 2.44157 19.8235 3.05905 20.1322L15 26.1027L26.941 20.1322C27.5585 19.8235 28.3093 20.0738 28.6181 20.6913C28.9268 21.3087 28.6765 22.0596 28.059 22.3683L15.559 28.6183C15.2071 28.7943 14.7929 28.7943 14.441 28.6183L1.94101 22.3683C1.32354 22.0596 1.07326 21.3087 1.382 20.6913Z" fill="#FF9901"/>
<path fill-rule="evenodd" clip-rule="evenodd" d="M1.382 14.4413C1.69073 13.8238 2.44157 13.5735 3.05905 13.8822L15 19.8527L26.941 13.8822C27.5585 13.5735 28.3093 13.8238 28.6181 14.4413C28.9268 15.0587 28.6765 15.8096 28.059 16.1183L15.559 22.3683C15.2071 22.5443 14.7929 22.5443 14.441 22.3683L1.94101 16.1183C1.32354 15.8096 1.07326 15.0587 1.382 14.4413Z" fill="#FF9901"/>
</svg>
