<svg width="100" height="100" viewBox="0 0 100 100" fill="none" xmlns="http://www.w3.org/2000/svg">
<path fill-rule="evenodd" clip-rule="evenodd" d="M50.0001 16.6673C41.1596 16.6673 32.6811 20.1792 26.4299 26.4304C20.1787 32.6816 16.6668 41.1601 16.6668 50.0007V75.0007C16.6668 77.3018 14.8013 79.1673 12.5001 79.1673C10.1989 79.1673 8.33347 77.3018 8.33347 75.0007V50.0007C8.33347 38.95 12.7233 28.3519 20.5373 20.5379C28.3514 12.7239 38.9494 8.33398 50.0001 8.33398C61.0508 8.33398 71.6489 12.7239 79.4629 20.5379C87.2769 28.3519 91.6668 38.95 91.6668 50.0007V75.0007C91.6668 77.3018 89.8013 79.1673 87.5001 79.1673C85.199 79.1673 83.3335 77.3018 83.3335 75.0007V50.0007C83.3335 41.1601 79.8216 32.6816 73.5704 26.4304C67.3191 20.1792 58.8407 16.6673 50.0001 16.6673Z" fill="white"/>
<path fill-rule="evenodd" clip-rule="evenodd" d="M8.33347 58.3327C8.33347 56.0315 10.1989 54.166 12.5001 54.166H25.0001C28.3153 54.166 31.4948 55.483 33.839 57.8272C36.1832 60.1714 37.5001 63.3508 37.5001 66.666V79.166C37.5001 82.4812 36.1832 85.6607 33.839 88.0049C31.4948 90.3491 28.3153 91.666 25.0001 91.666H20.8335C17.5183 91.666 14.3388 90.3491 11.9946 88.0049C9.65043 85.6607 8.33347 82.4812 8.33347 79.166V58.3327ZM16.6668 62.4994V79.166C16.6668 80.2711 17.1058 81.3309 17.8872 82.1123C18.6686 82.8937 19.7284 83.3327 20.8335 83.3327H25.0001C26.1052 83.3327 27.165 82.8937 27.9464 82.1123C28.7278 81.3309 29.1668 80.2711 29.1668 79.166V66.666C29.1668 65.561 28.7278 64.5011 27.9464 63.7197C27.165 62.9383 26.1052 62.4994 25.0001 62.4994H16.6668ZM75.0001 62.4994C73.8951 62.4994 72.8353 62.9383 72.0539 63.7197C71.2725 64.5011 70.8335 65.561 70.8335 66.666V79.166C70.8335 80.2711 71.2725 81.3309 72.0539 82.1123C72.8353 82.8937 73.8951 83.3327 75.0001 83.3327H79.1668C80.2719 83.3327 81.3317 82.8937 82.1131 82.1123C82.8945 81.3309 83.3335 80.2711 83.3335 79.166V62.4994H75.0001ZM66.1613 57.8272C68.5055 55.483 71.6849 54.166 75.0001 54.166H87.5001C89.8013 54.166 91.6668 56.0315 91.6668 58.3327V79.166C91.6668 82.4812 90.3498 85.6607 88.0056 88.0049C85.6614 90.3491 82.482 91.666 79.1668 91.666H75.0001C71.6849 91.666 68.5055 90.3491 66.1613 88.0049C63.8171 85.6607 62.5001 82.4812 62.5001 79.166V66.666C62.5001 63.3508 63.8171 60.1714 66.1613 57.8272Z" fill="white"/>
</svg>
