<svg width="150" height="150" viewBox="0 0 150 150" fill="none" xmlns="http://www.w3.org/2000/svg">
<path fill-rule="evenodd" clip-rule="evenodd" d="M75.0002 25.001C61.7394 25.001 49.0217 30.2688 39.6449 39.6456C30.2681 49.0225 25.0002 61.7402 25.0002 75.001V112.501C25.0002 115.953 22.202 118.751 18.7502 118.751C15.2984 118.751 12.5002 115.953 12.5002 112.501V75.001C12.5002 58.4249 19.085 42.5278 30.806 30.8068C42.5271 19.0858 58.4242 12.501 75.0002 12.501C91.5762 12.501 107.473 19.0858 119.194 30.8068C130.915 42.5278 137.5 58.4249 137.5 75.001V112.501C137.5 115.953 134.702 118.751 131.25 118.751C127.798 118.751 125 115.953 125 112.501V75.001C125 61.7402 119.732 49.0225 110.356 39.6456C100.979 30.2688 88.261 25.001 75.0002 25.001Z" fill="white"/>
<path fill-rule="evenodd" clip-rule="evenodd" d="M12.5002 87.499C12.5002 84.0472 15.2984 81.249 18.7502 81.249H37.5002C42.473 81.249 47.2422 83.2245 50.7585 86.7408C54.2748 90.2571 56.2502 95.0262 56.2502 99.999V118.749C56.2502 123.722 54.2748 128.491 50.7585 132.007C47.2422 135.524 42.473 137.499 37.5002 137.499H31.2502C26.2774 137.499 21.5083 135.524 17.992 132.007C14.4757 128.491 12.5002 123.722 12.5002 118.749V87.499ZM25.0002 93.749V118.749C25.0002 120.407 25.6587 121.996 26.8308 123.168C28.0029 124.341 29.5926 124.999 31.2502 124.999H37.5002C39.1578 124.999 40.7475 124.341 41.9196 123.168C43.0917 121.996 43.7502 120.407 43.7502 118.749V99.999C43.7502 98.3414 43.0917 96.7517 41.9196 95.5796C40.7475 94.4075 39.1578 93.749 37.5002 93.749H25.0002ZM112.5 93.749C110.843 93.749 109.253 94.4075 108.081 95.5796C106.909 96.7517 106.25 98.3414 106.25 99.999V118.749C106.25 120.407 106.909 121.996 108.081 123.168C109.253 124.341 110.843 124.999 112.5 124.999H118.75C120.408 124.999 121.998 124.341 123.17 123.168C124.342 121.996 125 120.407 125 118.749V93.749H112.5ZM99.242 86.7408C102.758 83.2245 107.527 81.249 112.5 81.249H131.25C134.702 81.249 137.5 84.0472 137.5 87.499V118.749C137.5 123.722 135.525 128.491 132.008 132.007C128.492 135.524 123.723 137.499 118.75 137.499H112.5C107.527 137.499 102.758 135.524 99.242 132.007C95.7257 128.491 93.7502 123.722 93.7502 118.749V99.999C93.7502 95.0262 95.7257 90.2571 99.242 86.7408Z" fill="white"/>
</svg>
