<svg width="35" height="35" viewBox="0 0 35 35" fill="none" xmlns="http://www.w3.org/2000/svg">
<path d="M30.625 23.3199V11.6533C30.6245 11.1418 30.4895 10.6394 30.2335 10.1966C29.9775 9.7538 29.6096 9.38608 29.1667 9.13034L18.9583 3.29701C18.5149 3.04102 18.012 2.90625 17.5 2.90625C16.988 2.90625 16.4851 3.04102 16.0417 3.29701L5.83333 9.13034C5.39038 9.38608 5.02247 9.7538 4.76651 10.1966C4.51054 10.6394 4.37552 11.1418 4.375 11.6533V23.3199C4.37552 23.8314 4.51054 24.3337 4.76651 24.7766C5.02247 25.2194 5.39038 25.5871 5.83333 25.8428L16.0417 31.6762C16.4851 31.9322 16.988 32.0669 17.5 32.0669C18.012 32.0669 18.5149 31.9322 18.9583 31.6762L29.1667 25.8428C29.6096 25.5871 29.9775 25.2194 30.2335 24.7766C30.4895 24.3337 30.6245 23.8314 30.625 23.3199Z" stroke="white" stroke-width="2" stroke-linecap="round" stroke-linejoin="round"/>
</svg>
