<svg width="25" height="25" viewBox="0 0 25 25" fill="none" xmlns="http://www.w3.org/2000/svg">
<path fill-rule="evenodd" clip-rule="evenodd" d="M11.8605 1.26142C12.2367 0.968851 12.7634 0.968851 13.1396 1.26142L22.5146 8.55308C22.7683 8.75043 22.9167 9.05388 22.9167 9.37532V20.8337C22.9167 21.6625 22.5875 22.4573 22.0014 23.0434C21.4154 23.6294 20.6205 23.9587 19.7917 23.9587H5.20837C4.37957 23.9587 3.58472 23.6294 2.99867 23.0434C2.41261 22.4573 2.08337 21.6625 2.08337 20.8337V9.37532C2.08337 9.05388 2.23178 8.75043 2.48552 8.55308L11.8605 1.26142ZM4.16671 9.88479V20.8337C4.16671 21.1099 4.27645 21.3749 4.4718 21.5702C4.66716 21.7656 4.93211 21.8753 5.20837 21.8753H19.7917C20.068 21.8753 20.3329 21.7656 20.5283 21.5702C20.7236 21.3749 20.8334 21.1099 20.8334 20.8337V9.88479L12.5 3.40331L4.16671 9.88479Z" fill="#161719"/>
<path fill-rule="evenodd" clip-rule="evenodd" d="M14.2517 13.4619C16.9435 12.0144 20.0872 12.0726 22.1462 12.5301L21.6038 14.9706C19.9128 14.5948 17.4315 14.5905 15.4358 15.6637C13.5588 16.6731 11.875 18.761 11.875 23.1253H9.375C9.375 17.9897 11.4412 14.9734 14.2517 13.4619Z" fill="#161719"/>
</svg>
