<svg width="50" height="50" viewBox="0 0 50 50" fill="none" xmlns="http://www.w3.org/2000/svg">
<path d="M48.9258 25C48.9258 38.2139 38.2139 48.9258 25 48.9258C11.7861 48.9258 1.07416 38.2139 1.07416 25C1.07416 11.7861 11.7861 1.07422 25 1.07422C38.2139 1.07422 48.9258 11.7861 48.9258 25Z" fill="#F5FFF6"/>
<path d="M25 4.98047C13.9435 4.98047 4.98044 13.9436 4.98044 25C4.98044 36.0565 13.9435 45.0196 25 45.0196C36.0564 45.0196 45.0195 36.0565 45.0195 25C45.0195 13.9436 36.0564 4.98047 25 4.98047ZM25 37.2071C18.2582 37.2071 12.7929 31.7418 12.7929 25C12.7929 18.2582 18.2582 12.793 25 12.793C31.7418 12.793 37.207 18.2582 37.207 25C37.207 31.7418 31.7418 37.2071 25 37.2071Z" fill="#FF5526"/>
<path d="M25 9.86328C16.6402 9.86328 9.86325 16.6402 9.86325 25C9.86325 33.3598 16.6402 40.1368 25 40.1368C33.3598 40.1368 40.1367 33.3598 40.1367 25C40.1367 16.6402 33.3598 9.86328 25 9.86328ZM25 37.2071C18.2582 37.2071 12.7929 31.7418 12.7929 25C12.7929 18.2582 18.2582 12.793 25 12.793C31.7418 12.793 37.207 18.2582 37.207 25C37.207 31.7418 31.7418 37.2071 25 37.2071Z" fill="#FF4927"/>
<path d="M24.6094 37.2008V45.0153C14.2239 44.8164 5.77623 36.7095 5.03521 26.4655H0.684719C0.141848 26.4655 -0.184422 25.8631 0.11216 25.4084L9.04059 11.7184C9.31032 11.3048 9.91608 11.3048 10.1857 11.7184L19.1142 25.4084C19.4108 25.8631 19.0845 26.4655 18.5417 26.4655H12.8815C13.5902 32.3897 18.5406 37.0099 24.6094 37.2008Z" fill="#FFB23C"/>
<path d="M5.03521 26.4655H4.39566H2.42222H0.684719C0.141848 26.4655 -0.184422 25.8631 0.11216 25.4084L9.04059 11.7184C9.31031 11.3048 9.91608 11.3048 10.1858 11.7184L11.4687 13.6855L5.39351 23.0005C5.1817 23.3253 5.4147 23.7555 5.8025 23.7555H7.28131C8.09029 23.7555 8.74615 24.4114 8.74615 25.2204V26.4655C9.06412 30.8609 10.8015 34.8622 13.5014 38.0146L11.2086 39.51C7.70416 36.1777 5.40582 31.5889 5.03521 26.4655Z" fill="#FFA40C"/>
<path d="M25.4883 45.0116V49.3154C25.4883 49.8582 24.8859 50.1845 24.4312 49.8879L10.7412 40.9595C10.3276 40.6898 10.3276 40.084 10.7412 39.8143L24.4312 30.8858C24.8859 30.5892 25.4883 30.9154 25.4883 31.4583V37.1959C31.874 36.9445 36.9989 31.7892 37.2002 25.3906H45.0147C44.8094 36.1041 36.1891 44.7552 25.4883 45.0116Z" fill="#07A511"/>
<path d="M49.8879 24.5932L40.9594 38.2832C40.6896 38.6968 40.0839 38.6968 39.8141 38.2832L30.8857 24.5932C30.5891 24.1385 30.9154 23.5362 31.4583 23.5362H37.1184C36.4097 17.612 31.4594 12.9917 25.3906 12.8008V4.98633C35.7761 5.18525 44.2237 13.2921 44.9647 23.5362H49.3152C49.8581 23.5362 50.1844 24.1385 49.8879 24.5932Z" fill="#066DAE"/>
<path d="M25.5687 0.112102L39.2588 9.04063C39.6724 9.31035 39.6724 9.91612 39.2588 10.1857L25.5687 19.1143C25.114 19.4109 24.5117 19.0846 24.5117 18.5417V0.684759C24.5117 0.141887 25.114 -0.184383 25.5687 0.112102Z" fill="#FF5526"/>
<path d="M39.2588 10.1858L25.5687 19.1143C25.114 19.4109 24.5117 19.0846 24.5117 18.5417V16.3921V14.9402V9.86328H25.7568C26.5658 9.86328 27.2217 10.5191 27.2217 11.3281V13.5334C27.2217 13.9212 27.6519 14.1542 27.9766 13.9424L37.3757 7.8125L39.2588 9.04063C39.6724 9.31035 39.6724 9.91612 39.2588 10.1858Z" fill="#FF4927"/>
<path d="M42.3399 36.1658L40.9594 38.2826C40.6896 38.6962 40.0839 38.6962 39.8141 38.2826L30.8857 24.5926C30.5891 24.1379 30.9154 23.5356 31.4583 23.5356H33.0401H35.3645H37.1184C36.6934 19.983 34.7428 16.8998 31.9406 14.9591L34.3694 13.375C37.5401 15.5244 39.5536 19.4775 40.0391 23.5356V24.7807C40.0391 25.5897 39.3832 26.2455 38.5742 26.2455H36.7714C36.3836 26.2455 36.1506 26.6758 36.3624 27.0005L42.3399 36.1658Z" fill="#015D96"/>
<path d="M39.8907 38.3784C36.3274 42.3417 31.2051 44.8752 25.4883 45.0122V46.3862V47.8278V49.3159C25.4883 49.8588 24.8859 50.1851 24.4312 49.8885L10.7412 40.9601C10.3276 40.6903 10.3276 40.0846 10.7412 39.8148L12.1092 38.9226L22.0232 45.3884C22.348 45.6002 22.7782 45.3671 22.7782 44.9794V43.5474C22.7782 42.7384 23.4341 42.0825 24.2431 42.0825H25.4883C30.6142 41.9597 35.262 39.9102 38.7367 36.6309L39.8142 38.2829C39.8371 38.3182 39.8633 38.3492 39.8907 38.3784Z" fill="#099705"/>
</svg>
