<svg width="35" height="43" viewBox="0 0 35 43" fill="none" xmlns="http://www.w3.org/2000/svg">
<path d="M32.9012 29.6963C32.8718 30.092 32.763 30.4665 32.5902 30.8028C24.3045 31.3908 16.0181 31.3542 7.73243 30.6934C7.59021 30.3857 7.50086 30.05 7.4741 29.6963C6.8514 21.3778 6.81597 13.0608 7.36798 4.74305C7.40134 4.23978 7.43669 3.73724 7.4741 3.23463C7.57824 1.84034 8.66482 0.716347 10.0538 0.56216C16.8097 -0.187387 23.5656 -0.187387 30.3215 0.56216C31.7111 0.716347 32.797 1.84034 32.9011 3.23463C33.0586 5.33709 33.1781 7.44021 33.2602 9.54267C33.524 16.2606 33.4038 22.9784 32.9012 29.6963Z" fill="#E7ECF6"/>
<path d="M29.3236 32.9441C29.2937 33.3406 29.1852 33.7148 29.0126 34.0514C20.7264 34.6393 12.4402 34.6025 4.15409 33.9412C4.01229 33.6335 3.92252 33.2978 3.89609 32.944C3.3706 25.931 3.26382 18.9196 3.57401 11.9065C3.63124 10.6019 3.70391 9.29626 3.79022 7.99157C3.8235 7.4883 3.8586 6.9851 3.89617 6.48265C4.0004 5.0882 5.08722 3.9647 6.47565 3.81002C13.2316 3.06072 19.9875 3.06072 26.7434 3.81002C28.1335 3.9647 29.2195 5.0882 29.3238 6.48265C29.481 8.58536 29.6006 10.6881 29.6826 12.7909C29.739 14.222 29.7774 15.6523 29.7988 17.0826C29.8773 22.3698 29.7193 27.657 29.3236 32.9441Z" fill="#F9F6F6"/>
<path d="M29.3236 32.9452C29.2937 33.3417 29.1852 33.7159 29.0126 34.0525C20.7264 34.6404 12.4402 34.6036 4.15409 33.9423C4.01229 33.6346 3.92252 33.2989 3.89609 32.9451C3.3706 25.932 3.26382 18.9207 3.57401 11.9076C7.96574 11.2702 11.9063 11.26 15.6905 11.8777C16.8303 12.064 17.7104 12.9876 17.8394 14.1343C17.8565 14.2829 17.8727 14.4316 17.889 14.5803C18.0325 15.897 19.1475 16.8924 20.4719 16.8855C23.5812 16.871 26.6895 16.9368 29.7988 17.0837C29.8773 22.3709 29.7193 27.6581 29.3236 32.9452Z" fill="#E7ECF6"/>
<path d="M25.4401 11.1511H8.85459C8.50212 11.1511 8.21654 10.8655 8.21654 10.5131C8.21654 10.1607 8.5022 9.875 8.85459 9.875H25.4401C25.7926 9.875 26.0781 10.1607 26.0781 10.5131C26.0781 10.8655 25.7926 11.1511 25.4401 11.1511Z" fill="#9DC6FB"/>
<path d="M25.4403 14.8152H12.6153C12.2628 14.8152 11.9772 14.5295 11.9772 14.1771C11.9772 13.8247 12.2629 13.5391 12.6153 13.5391H25.4403C25.7928 13.5391 26.0784 13.8247 26.0784 14.1771C26.0784 14.5295 25.7927 14.8152 25.4403 14.8152Z" fill="#9DC6FB"/>
<path d="M34.7032 35.5437L34.7025 35.5444C34.6067 36.8352 34.4862 38.1254 34.3426 39.4163C34.206 40.6459 33.2101 41.6022 31.9771 41.7008C22.3263 42.4776 12.6741 42.4776 3.02332 41.7008C1.78387 41.6016 0.793014 40.636 0.655674 39.4008C-0.225348 31.4874 -0.218246 23.574 0.675412 15.6606C0.807136 14.4958 1.71136 13.5668 2.8712 13.3965C7.30851 12.743 11.2832 12.7274 15.0995 13.3507C16.2396 13.5366 17.1192 14.4598 17.2488 15.607C17.2657 15.7556 17.2819 15.9043 17.2981 16.0528C17.4418 17.3697 18.5565 18.3648 19.8812 18.3585C24.0495 18.3387 28.2178 18.4641 32.3862 18.7338C33.689 18.8183 34.7235 19.8599 34.8031 21.1634C35.0954 25.957 35.0624 30.75 34.7032 35.5437Z" fill="#E7A561"/>
<path d="M4.89535 41.8419C4.27166 41.7982 3.64724 41.7509 3.02355 41.7007C1.78419 41.601 0.79366 40.6353 0.656155 39.4003C-0.225197 31.4866 -0.21793 23.5737 0.675728 15.66C0.807451 14.4955 1.71135 13.5662 2.87134 13.3959C3.6289 13.2846 4.37349 13.1914 5.10627 13.1172C4.345 13.5247 3.80506 14.2859 3.70389 15.1811C2.77455 23.4121 2.76654 31.6438 3.68349 39.8747C3.77533 40.7022 4.23524 41.4133 4.89535 41.8419Z" fill="#E49542"/>
<path d="M13.362 39.2736C13.0621 39.2736 12.7559 39.204 12.4505 39.0649C12.0124 38.8652 11.7257 38.5836 11.6945 38.5522C11.4461 38.3022 11.4474 37.8982 11.6974 37.6498C11.9463 37.4023 12.348 37.4027 12.5966 37.6494C12.6274 37.6792 13.1752 38.1962 13.7028 37.9032C13.9749 37.7522 14.1439 37.4567 14.1439 37.132V31.1537C14.1439 30.8013 14.4295 30.5156 14.7819 30.5156C15.1343 30.5156 15.42 30.8013 15.42 31.1537V37.132C15.42 37.9201 14.9993 38.6431 14.3221 39.019C14.0169 39.1886 13.6934 39.2736 13.362 39.2736Z" fill="#365E7D"/>
<path d="M27.2605 35.2417C27.0918 35.2417 26.93 35.1749 26.8104 35.0558C26.69 34.936 26.6224 34.7733 26.6224 34.6036V31.1537C26.6224 30.8013 26.9081 30.5156 27.2605 30.5156H29.4333C30.7342 30.5156 31.7926 31.574 31.7926 32.8749C31.7926 34.1758 30.7342 35.2342 29.4333 35.2342C28.9625 35.2342 27.2634 35.2418 27.2633 35.2418C27.2624 35.2417 27.2614 35.2417 27.2605 35.2417ZM27.8986 31.7917V33.9628C28.4334 33.9606 29.152 33.958 29.4334 33.958C30.0305 33.958 30.5165 33.4721 30.5165 32.8748C30.5165 32.2777 30.0306 31.7917 29.4334 31.7917H27.8986Z" fill="#365E7D"/>
<path d="M27.2605 39.2708C27.0918 39.2708 26.93 39.204 26.8104 39.0849C26.69 38.9652 26.6224 38.8025 26.6224 38.6327V34.597C26.6224 34.2446 26.9081 33.959 27.2605 33.959H29.8128C31.2748 33.959 32.4643 35.1485 32.4643 36.6105C32.4643 38.0725 31.2749 39.262 29.8128 39.262C29.262 39.262 27.2635 39.2709 27.2634 39.2709C27.2624 39.2708 27.2615 39.2708 27.2605 39.2708ZM27.8986 35.2351V37.9919C28.5353 37.9892 29.4654 37.9857 29.8128 37.9857C30.5711 37.9857 31.1881 37.3688 31.1881 36.6104C31.1881 35.852 30.5711 35.235 29.8128 35.235H27.8986V35.2351Z" fill="#365E7D"/>
<path d="M21.1759 39.2718C18.7617 39.2718 16.7978 37.3078 16.7978 34.8937C16.7978 32.4797 18.7618 30.5156 21.1759 30.5156C23.5899 30.5156 25.554 32.4797 25.554 34.8937C25.554 37.3078 23.59 39.2718 21.1759 39.2718ZM21.1759 31.7917C19.4654 31.7917 18.0739 33.1833 18.0739 34.8937C18.0739 36.6042 19.4654 37.9957 21.1759 37.9957C22.8864 37.9957 24.2779 36.6042 24.2779 34.8937C24.2779 33.1833 22.8864 31.7917 21.1759 31.7917Z" fill="#365E7D"/>
</svg>
