<svg width="50" height="50" viewBox="0 0 50 50" fill="none" xmlns="http://www.w3.org/2000/svg">
<path d="M42.7893 26.6758H37.7139C33.7374 26.6758 30.4808 29.9184 30.4808 33.8948V41.8548C30.4808 44.2406 32.4434 46.195 34.8293 46.195H45.6738C48.0598 46.195 50 44.2406 50 41.8548V33.8948C50 29.9183 46.7657 26.6758 42.7893 26.6758Z" fill="#FF504A"/>
<path d="M40.2516 26.6758H37.7139C33.7374 26.6758 30.4808 29.9184 30.4808 33.8948V41.8548C30.4808 44.2406 32.4434 46.195 34.8293 46.195H40.2516V26.6758Z" fill="#FF7959"/>
<path d="M40.2516 11.8887C36.6751 11.8887 33.7655 14.7983 33.7655 18.3747C33.7655 21.9512 36.6751 24.8608 40.2516 24.8608C43.828 24.8608 46.7376 21.9512 46.7376 18.3747C46.7376 14.7984 43.828 11.8887 40.2516 11.8887Z" fill="#FF504A"/>
<path d="M40.2516 11.8887C36.6751 11.8887 33.7655 14.7983 33.7655 18.3747C33.7655 21.9512 36.6751 24.8608 40.2516 24.8608V11.8887Z" fill="#FF7959"/>
<path d="M12.3084 26.6758H7.23311C3.25664 26.6758 0 29.9183 0 33.8947V41.8547C0 44.2405 1.9626 46.1949 4.34854 46.1949H15.1931C17.579 46.1949 19.5192 44.2405 19.5192 41.8547V33.8947C19.5192 29.9183 16.285 26.6758 12.3084 26.6758Z" fill="#2FD163"/>
<path d="M9.7708 26.6758H7.23311C3.25664 26.6758 0 29.9184 0 33.8948V41.8548C0 44.2406 1.9626 46.195 4.34854 46.195H9.7708C9.7708 46.1951 9.7708 26.6758 9.7708 26.6758Z" fill="#7EFF76"/>
<path d="M29.4162 22.9258H20.5838C16.6073 22.9258 13.3723 26.1608 13.3723 30.1373V44.739C13.3723 45.5355 14.0181 46.1812 14.8146 46.1812H35.1855C35.982 46.1812 36.6277 45.5355 36.6277 44.739V30.1373C36.6277 26.1608 33.3927 22.9258 29.4162 22.9258Z" fill="#3594C7"/>
<path d="M25.0487 22.9258H20.5838C16.6073 22.9258 13.3723 26.1608 13.3723 30.1373V44.739C13.3723 45.5355 14.0181 46.1812 14.8146 46.1812H25.0487V22.9258Z" fill="#16DCFA"/>
<path d="M25 3.80469C20.2178 3.80469 16.3271 7.69531 16.3271 12.4775C16.3271 17.2598 20.2177 21.1504 25 21.1504C29.7823 21.1504 33.6729 17.2598 33.6729 12.4775C33.6729 7.69531 29.7822 3.80469 25 3.80469Z" fill="#3594C7"/>
<path d="M25 3.80469C20.2178 3.80469 16.3271 7.69531 16.3271 12.4775C16.3271 17.2598 20.2177 21.1504 25 21.1504V3.80469Z" fill="#16DCFA"/>
<path d="M9.77079 11.8887C6.19433 11.8887 3.28476 14.7983 3.28476 18.3747C3.28476 21.9512 6.19433 24.8608 9.77079 24.8608C13.3473 24.8608 16.2568 21.9512 16.2568 18.3747C16.2568 14.7984 13.3473 11.8887 9.77079 11.8887Z" fill="#2FD163"/>
<path d="M9.77079 11.8887C6.19433 11.8887 3.28476 14.7983 3.28476 18.3747C3.28476 21.9512 6.19433 24.8608 9.77079 24.8608V11.8887Z" fill="#7EFF76"/>
</svg>
