<svg width="50" height="50" viewBox="0 0 50 50" fill="none" xmlns="http://www.w3.org/2000/svg">
<path d="M33.3672 48.2671H13.1603L15.952 42.2045L17.5479 38.7402H28.9797L30.5756 42.2045L33.3672 48.2671Z" fill="#ABBAC2"/>
<path d="M37.222 46.5352H9.3055C8.27764 46.5352 7.4444 47.3107 7.4444 48.2673C7.4444 49.2239 8.27764 49.9995 9.3055 49.9995H37.222C38.2499 49.9995 39.0831 49.2239 39.0831 48.2673C39.0831 47.3107 38.2499 46.5352 37.222 46.5352Z" fill="#CCDCE5"/>
<path d="M30.5756 42.2045H15.952L17.5479 38.7402H28.9797L30.5756 42.2045Z" fill="#798B9B"/>
<path d="M42.8053 6.69727H3.7222C1.66649 6.69727 0 8.24828 0 10.1616V37.0099C0 38.9232 1.66649 40.4742 3.7222 40.4742H42.8053C44.861 40.4742 46.5275 38.9232 46.5275 37.0099V10.1616C46.5275 8.24828 44.861 6.69727 42.8053 6.69727Z" fill="#0093BA"/>
<path d="M42.8053 40.4716H3.7222C2.73501 40.4716 1.78826 40.1066 1.09021 39.4569C0.392159 38.8072 0 37.9261 0 37.0073V33.543H46.5275V37.0073C46.5275 37.9261 46.1354 38.8072 45.4373 39.4569C44.7393 40.1066 43.7925 40.4716 42.8053 40.4716Z" fill="#CCDCE5"/>
<path d="M22.3332 36.1426H24.1943V37.8747H22.3332V36.1426Z" fill="#ABBAC2"/>
<path d="M47.7625 10.1173L50 8.33099C49.4441 6.98576 49.4427 6.98229 48.8867 5.63706L45.9401 5.707L44.2572 4.05951L44.4826 1.32423L41.6488 0.151888L39.6182 2.14061L37.1755 2.08258L35.2562 0L32.3618 1.03626L32.4369 3.77868L30.6668 5.34498L27.7278 5.13517C27.0989 6.45226 27.0973 6.45594 26.4682 7.77269L28.605 9.66247C28.5801 10.5699 28.5675 11.0283 28.5427 11.9359L26.3051 13.7222C26.861 15.0674 26.8624 15.0709 27.4184 16.4161L30.365 16.3462L32.0479 17.9945L31.8225 20.7298L34.6564 21.9022L36.6868 19.9134L39.1295 19.9715L41.0488 22.054L43.9433 21.0178L43.8681 18.2754L45.6392 16.7091L48.5781 16.9189C49.207 15.6018 49.2087 15.5981 49.8377 14.2814L47.7001 12.3907C47.7256 11.4834 47.7372 11.025 47.7625 10.1173ZM40.1962 15.9714C39.1453 16.3476 37.9982 16.4253 36.8999 16.1947C35.8015 15.9641 34.8013 15.4355 34.0258 14.6759C33.2502 13.9162 32.7341 12.9596 32.5427 11.9269C32.3513 10.8943 32.4932 9.83198 32.9505 8.87439C33.4078 7.9168 34.1599 7.10691 35.1117 6.54715C36.0635 5.98739 37.1723 5.70289 38.2979 5.72963C39.4234 5.75637 40.5152 6.09315 41.4351 6.69738C42.355 7.30161 43.0617 8.14615 43.4659 9.1242C43.7343 9.77364 43.8627 10.4659 43.8437 11.1615C43.8246 11.8571 43.6586 12.5425 43.3549 13.1783C43.0513 13.8142 42.6161 14.3882 42.0741 14.8675C41.5321 15.3468 40.894 15.7221 40.1962 15.9718V15.9714Z" fill="#FFC119"/>
<path d="M6.78639 16.8393L3.99474 14.241C3.90832 14.1606 3.83977 14.0651 3.79301 13.9601C3.74624 13.855 3.72217 13.7424 3.72217 13.6286C3.72217 13.5149 3.74624 13.4023 3.79301 13.2972C3.83977 13.1921 3.90832 13.0966 3.99474 13.0162L6.78639 10.418L8.10242 11.6428L5.96867 13.6286L8.10242 15.6144L6.78639 16.8393Z" fill="#88BF40"/>
<path d="M15.5468 16.8393L14.2308 15.6144L16.3645 13.6286L14.2308 11.6428L15.5468 10.418L18.3385 13.0162C18.4249 13.0966 18.4934 13.1921 18.5402 13.2972C18.587 13.4023 18.611 13.5149 18.611 13.6286C18.611 13.7424 18.587 13.855 18.5402 13.9601C18.4934 14.0651 18.4249 14.1606 18.3385 14.241L15.5468 16.8393Z" fill="#88BF40"/>
<path d="M9.3371 16.8906L11.2018 9.96301L13.007 10.3839L11.1424 17.3115L9.3371 16.8906Z" fill="#88BF40"/>
<path d="M3.7222 18.8242H5.5833V20.5564H3.7222V18.8242Z" fill="#88BF40"/>
<path d="M7.4444 18.8242H25.1249V20.5564H7.4444V18.8242Z" fill="#88BF40"/>
<path d="M3.7222 22.2871H5.5833V24.0193H3.7222V22.2871Z" fill="#88BF40"/>
<path d="M7.4444 22.2871H27.9165V24.0193H7.4444V22.2871Z" fill="#88BF40"/>
<path d="M3.7222 25.752H5.5833V27.4841H3.7222V25.752Z" fill="#88BF40"/>
<path d="M7.4444 25.752H30.7082V27.4841H7.4444V25.752Z" fill="#88BF40"/>
<path d="M3.7222 29.2168H5.5833V30.9489H3.7222V29.2168Z" fill="#88BF40"/>
<path d="M7.4444 29.2168H35.3609V30.9489H7.4444V29.2168Z" fill="#88BF40"/>
<path d="M37.222 29.2168H39.0831V30.9489H37.222V29.2168Z" fill="#88BF40"/>
<path d="M36.2915 25.752H38.1526V27.4841H36.2915V25.752Z" fill="#88BF40"/>
<path d="M32.5693 25.752H34.4304V27.4841H32.5693V25.752Z" fill="#88BF40"/>
<path d="M40.9442 29.2168H42.8053V30.9489H40.9442V29.2168Z" fill="#88BF40"/>
</svg>
