<svg width="36" height="33" viewBox="0 0 36 33" fill="none" xmlns="http://www.w3.org/2000/svg">
<path fill-rule="evenodd" clip-rule="evenodd" d="M18.3333 0.208984C18.9388 0.208984 19.4918 0.542266 19.7598 1.06871L24.3059 9.99811L34.4724 11.4388C35.0715 11.5237 35.5689 11.931 35.7556 12.4893C35.9424 13.0477 35.786 13.6605 35.3523 14.07L27.9972 21.0157L29.7331 30.8282C29.8354 31.4069 29.59 31.9917 29.1001 32.3368C28.6101 32.6819 27.9606 32.7274 27.4246 32.4541L18.3333 27.8187L9.24195 32.4541C8.70595 32.7274 8.05639 32.6819 7.56643 32.3368C7.07647 31.9917 6.83108 31.4069 6.93345 30.8282L8.66927 21.0157L1.31418 14.07C0.880467 13.6605 0.724124 13.0477 0.910861 12.4893C1.0976 11.931 1.59504 11.5237 2.19411 11.4388L12.3606 9.99811L16.9067 1.06871C17.1747 0.542266 17.7277 0.208984 18.3333 0.208984ZM18.3333 5.23623L14.8439 12.0899C14.6124 12.5447 14.1651 12.8601 13.6474 12.9334L5.84212 14.0396L11.4888 19.3719C11.864 19.7262 12.0353 20.237 11.9467 20.7376L10.6145 28.2688L17.5928 24.7107C18.0563 24.4744 18.6102 24.4744 19.0737 24.7107L26.052 28.2688L24.7198 20.7376C24.6312 20.237 24.8025 19.7262 25.1777 19.3719L30.8244 14.0396L23.0191 12.9334C22.5015 12.8601 22.0541 12.5447 21.8226 12.0899L18.3333 5.23623Z" fill="#FF9901"/>
</svg>
