<svg width="14" height="14" viewBox="0 0 14 14" fill="none" xmlns="http://www.w3.org/2000/svg">
<path fill-rule="evenodd" clip-rule="evenodd" d="M6.73904 0.645569C6.90327 0.563456 7.09657 0.563456 7.26079 0.645569L13.0941 3.56224C13.2917 3.66105 13.4166 3.86303 13.4166 4.08398C13.4166 4.30493 13.2917 4.50692 13.0941 4.60573L7.26079 7.5224C7.09657 7.60451 6.90327 7.60451 6.73904 7.5224L0.905711 4.60573C0.708087 4.50692 0.583252 4.30493 0.583252 4.08398C0.583252 3.86303 0.708087 3.66105 0.905711 3.56224L6.73904 0.645569ZM2.47096 4.08398L6.99992 6.34846L11.5289 4.08398L6.99992 1.8195L2.47096 4.08398Z" fill="#8F8E94"/>
<path fill-rule="evenodd" clip-rule="evenodd" d="M0.644964 9.65657C0.789041 9.36842 1.13943 9.25162 1.42759 9.3957L7.00005 12.1819L12.5725 9.3957C12.8607 9.25162 13.2111 9.36842 13.3551 9.65657C13.4992 9.94473 13.3824 10.2951 13.0943 10.4392L7.26092 13.3559C7.0967 13.438 6.9034 13.438 6.73917 13.3559L0.905838 10.4392C0.617684 10.2951 0.500887 9.94473 0.644964 9.65657Z" fill="#8F8E94"/>
<path fill-rule="evenodd" clip-rule="evenodd" d="M0.644964 6.7386C0.789041 6.45045 1.13943 6.33365 1.42759 6.47773L7.00005 9.26396L12.5725 6.47773C12.8607 6.33365 13.2111 6.45045 13.3551 6.7386C13.4992 7.02676 13.3824 7.37715 13.0943 7.52123L7.26092 10.4379C7.0967 10.52 6.9034 10.52 6.73917 10.4379L0.905838 7.52123C0.617684 7.37715 0.500887 7.02676 0.644964 6.7386Z" fill="#8F8E94"/>
</svg>
