<svg width="25" height="25" viewBox="0 0 25 25" fill="none" xmlns="http://www.w3.org/2000/svg">
<path fill-rule="evenodd" clip-rule="evenodd" d="M6.25 8.33333C5.14493 8.33333 4.08512 8.77232 3.30372 9.55372C2.52232 10.3351 2.08333 11.3949 2.08333 12.5C2.08333 13.6051 2.52232 14.6649 3.30372 15.4463C3.69063 15.8332 4.14996 16.1401 4.65549 16.3495C5.16101 16.5589 5.70282 16.6667 6.25 16.6667H9.375C9.9503 16.6667 10.4167 17.133 10.4167 17.7083C10.4167 18.2836 9.9503 18.75 9.375 18.75H6.25C5.42924 18.75 4.61651 18.5883 3.85823 18.2742C3.09994 17.9602 2.41095 17.4998 1.83058 16.9194C0.65848 15.7473 0 14.1576 0 12.5C0 10.8424 0.65848 9.25268 1.83058 8.08058C3.00268 6.90848 4.5924 6.25 6.25 6.25H9.375C9.9503 6.25 10.4167 6.71637 10.4167 7.29167C10.4167 7.86696 9.9503 8.33333 9.375 8.33333H6.25ZM14.5833 7.29167C14.5833 6.71637 15.0497 6.25 15.625 6.25H18.75C19.5708 6.25 20.3835 6.41166 21.1418 6.72575C21.9001 7.03984 22.5891 7.50022 23.1694 8.08058C23.7498 8.66095 24.2102 9.34994 24.5242 10.1082C24.8383 10.8665 25 11.6792 25 12.5C25 13.3208 24.8383 14.1335 24.5242 14.8918C24.2102 15.6501 23.7498 16.3391 23.1694 16.9194C22.5891 17.4998 21.9001 17.9602 21.1418 18.2742C20.3835 18.5883 19.5708 18.75 18.75 18.75H15.625C15.0497 18.75 14.5833 18.2836 14.5833 17.7083C14.5833 17.133 15.0497 16.6667 15.625 16.6667H18.75C19.2972 16.6667 19.839 16.5589 20.3445 16.3495C20.85 16.1401 21.3094 15.8332 21.6963 15.4463C22.0832 15.0594 22.3901 14.6 22.5995 14.0945C22.8089 13.589 22.9167 13.0472 22.9167 12.5C22.9167 11.9528 22.8089 11.411 22.5995 10.9055C22.3901 10.4 22.0832 9.94063 21.6963 9.55372C21.3094 9.16681 20.85 8.8599 20.3445 8.6505C19.839 8.44111 19.2972 8.33333 18.75 8.33333H15.625C15.0497 8.33333 14.5833 7.86696 14.5833 7.29167Z" fill="#FF8A00"/>
<path fill-rule="evenodd" clip-rule="evenodd" d="M7.29175 12.5007C7.29175 11.9254 7.75812 11.459 8.33341 11.459H16.6667C17.242 11.459 17.7084 11.9254 17.7084 12.5007C17.7084 13.0759 17.242 13.5423 16.6667 13.5423H8.33341C7.75812 13.5423 7.29175 13.0759 7.29175 12.5007Z" fill="#FF8A00"/>
</svg>
