<svg width="20" height="20" viewBox="0 0 20 20" fill="none" xmlns="http://www.w3.org/2000/svg">
<path fill-rule="evenodd" clip-rule="evenodd" d="M3.33331 4.16667C2.87688 4.16667 2.49998 4.54357 2.49998 5V15C2.49998 15.4564 2.87688 15.8333 3.33331 15.8333H16.6666C17.1231 15.8333 17.5 15.4564 17.5 15V5C17.5 4.54357 17.1231 4.16667 16.6666 4.16667H3.33331ZM0.833313 5C0.833313 3.6231 1.95641 2.5 3.33331 2.5H16.6666C18.0435 2.5 19.1666 3.6231 19.1666 5V15C19.1666 16.3769 18.0435 17.5 16.6666 17.5H3.33331C1.95641 17.5 0.833313 16.3769 0.833313 15V5Z" fill="#6B6969"/>
<path fill-rule="evenodd" clip-rule="evenodd" d="M0.983903 4.52251C1.24783 4.14547 1.76744 4.05378 2.14448 4.3177L9.99993 9.81652L17.8554 4.3177C18.2324 4.05378 18.752 4.14547 19.016 4.52251C19.2799 4.89955 19.1882 5.41916 18.8111 5.68309L10.4778 11.5164C10.1909 11.7173 9.80898 11.7173 9.52204 11.5164L1.18871 5.68309C0.811669 5.41916 0.719974 4.89955 0.983903 4.52251Z" fill="#6B6969"/>
</svg>
