<svg width="20" height="20" viewBox="0 0 20 20" fill="none" xmlns="http://www.w3.org/2000/svg">
<path fill-rule="evenodd" clip-rule="evenodd" d="M8.33331 9.99967C8.33331 9.0792 9.07951 8.33301 9.99998 8.33301C10.9205 8.33301 11.6666 9.0792 11.6666 9.99967C11.6666 10.9201 10.9205 11.6663 9.99998 11.6663C9.07951 11.6663 8.33331 10.9201 8.33331 9.99967Z" fill="#161719"/>
<path fill-rule="evenodd" clip-rule="evenodd" d="M8.33331 4.16667C8.33331 3.24619 9.07951 2.5 9.99998 2.5C10.9205 2.5 11.6666 3.24619 11.6666 4.16667C11.6666 5.08714 10.9205 5.83333 9.99998 5.83333C9.07951 5.83333 8.33331 5.08714 8.33331 4.16667Z" fill="#161719"/>
<path fill-rule="evenodd" clip-rule="evenodd" d="M8.33331 15.8337C8.33331 14.9132 9.07951 14.167 9.99998 14.167C10.9205 14.167 11.6666 14.9132 11.6666 15.8337C11.6666 16.7541 10.9205 17.5003 9.99998 17.5003C9.07951 17.5003 8.33331 16.7541 8.33331 15.8337Z" fill="#161719"/>
</svg>
