<svg width="14" height="14" viewBox="0 0 14 14" fill="none" xmlns="http://www.w3.org/2000/svg">
<path fill-rule="evenodd" clip-rule="evenodd" d="M9.20493 1.39323C8.74045 1.39323 8.295 1.57774 7.96657 1.90617L2.60574 7.26701C2.05839 7.81435 1.7509 8.55671 1.7509 9.33078C1.7509 10.1048 2.05839 10.8472 2.60574 11.3945C3.15308 11.9419 3.89544 12.2494 4.66951 12.2494C5.44357 12.2494 6.18593 11.9419 6.73328 11.3945L12.0941 6.03371C12.3219 5.80591 12.6913 5.80591 12.9191 6.03371C13.1469 6.26152 13.1469 6.63087 12.9191 6.85867L7.55824 12.2195C6.7921 12.9856 5.75299 13.4161 4.66951 13.4161C3.58602 13.4161 2.54692 12.9856 1.78078 12.2195C1.01464 11.4534 0.584229 10.4143 0.584229 9.33078C0.584229 8.24729 1.01464 7.20819 1.78078 6.44205L7.14161 1.08121C7.68884 0.53399 8.43103 0.226562 9.20493 0.226562C9.97882 0.226562 10.721 0.53399 11.2682 1.08121C11.8155 1.62844 12.1229 2.37063 12.1229 3.14453C12.1229 3.91842 11.8155 4.66061 11.2682 5.20784L5.90157 10.5687C5.57326 10.897 5.12798 11.0814 4.66368 11.0814C4.19937 11.0814 3.75409 10.897 3.42578 10.5687C3.09747 10.2404 2.91303 9.79508 2.91303 9.33078C2.91303 8.86648 3.09747 8.42119 3.42578 8.09288L8.37852 3.14597C8.60646 2.9183 8.97581 2.91852 9.20348 3.14646C9.43115 3.3744 9.43093 3.74374 9.20299 3.97142L4.25074 8.91784C4.14137 9.02733 4.07969 9.17601 4.07969 9.33078C4.07969 9.48566 4.14122 9.6342 4.25074 9.74371C4.36026 9.85323 4.50879 9.91476 4.66368 9.91476C4.81856 9.91476 4.96709 9.85323 5.07661 9.74371L10.4433 4.38288C10.7716 4.05447 10.9562 3.60889 10.9562 3.14453C10.9562 2.68005 10.7717 2.2346 10.4433 1.90617C10.1148 1.57774 9.6694 1.39323 9.20493 1.39323Z" fill="#8F8E94"/>
</svg>
