<svg width="25" height="25" viewBox="0 0 25 25" fill="none" xmlns="http://www.w3.org/2000/svg">
<path fill-rule="evenodd" clip-rule="evenodd" d="M16.4376 2.48763C15.6081 2.48763 14.8127 2.81711 14.2262 3.4036L4.65329 12.9765C3.67589 13.9539 3.12679 15.2796 3.12679 16.6618C3.12679 18.0441 3.67589 19.3697 4.65329 20.3471C5.6307 21.3245 6.95634 21.8736 8.3386 21.8736C9.72086 21.8736 11.0465 21.3245 12.0239 20.3471L21.5968 10.7742C22.0036 10.3674 22.6632 10.3674 23.07 10.7742C23.4768 11.181 23.4768 11.8406 23.07 12.2473L13.497 21.8203C12.1289 23.1884 10.2734 23.957 8.3386 23.957C6.40381 23.957 4.54826 23.1884 3.18015 21.8203C1.81205 20.4522 1.04346 18.5966 1.04346 16.6618C1.04346 14.727 1.81205 12.8715 3.18015 11.5034L12.7531 1.93046C13.7303 0.953274 15.0556 0.404297 16.4376 0.404297C17.8195 0.404297 19.1449 0.953274 20.122 1.93046C21.0992 2.90765 21.6482 4.233 21.6482 5.61495C21.6482 6.9969 21.0992 8.32225 20.122 9.29943L10.5387 18.8724C9.95244 19.4586 9.15729 19.788 8.32818 19.788C7.49907 19.788 6.70392 19.4586 6.11766 18.8724C5.53139 18.2861 5.20202 17.4909 5.20202 16.6618C5.20202 15.8327 5.53139 15.0376 6.11766 14.4513L14.9618 5.61753C15.3689 5.21097 16.0284 5.21136 16.435 5.61839C16.8415 6.02543 16.8411 6.68498 16.4341 7.09153L7.59079 15.9244C7.3955 16.12 7.28536 16.3855 7.28536 16.6618C7.28536 16.9384 7.39523 17.2036 7.59079 17.3992C7.78636 17.5948 8.05161 17.7046 8.32818 17.7046C8.60476 17.7046 8.87 17.5948 9.06557 17.3992L18.6489 7.82629C19.2351 7.23985 19.5649 6.44417 19.5649 5.61495C19.5649 4.78553 19.2354 3.99009 18.6489 3.4036C18.0624 2.81711 17.267 2.48763 16.4376 2.48763Z" fill="#FF9901"/>
</svg>
