<svg width="20" height="20" viewBox="0 0 20 20" fill="none" xmlns="http://www.w3.org/2000/svg">
<path fill-rule="evenodd" clip-rule="evenodd" d="M9.1667 3.33366C5.94504 3.33366 3.33337 5.94533 3.33337 9.16699C3.33337 12.3887 5.94504 15.0003 9.1667 15.0003C12.3884 15.0003 15 12.3887 15 9.16699C15 5.94533 12.3884 3.33366 9.1667 3.33366ZM1.6667 9.16699C1.6667 5.02486 5.02457 1.66699 9.1667 1.66699C13.3088 1.66699 16.6667 5.02486 16.6667 9.16699C16.6667 13.3091 13.3088 16.667 9.1667 16.667C5.02457 16.667 1.6667 13.3091 1.6667 9.16699Z" fill="#161719"/>
<path fill-rule="evenodd" clip-rule="evenodd" d="M13.2857 13.2861C13.6112 12.9606 14.1388 12.9606 14.4642 13.2861L18.0892 16.9111C18.4147 17.2365 18.4147 17.7641 18.0892 18.0896C17.7638 18.415 17.2362 18.415 16.9107 18.0896L13.2857 14.4646C12.9603 14.1391 12.9603 13.6115 13.2857 13.2861Z" fill="#161719"/>
</svg>
