<svg width="25" height="25" viewBox="0 0 25 25" fill="none" xmlns="http://www.w3.org/2000/svg">
<path fill-rule="evenodd" clip-rule="evenodd" d="M23.6532 1.34709C24.06 1.75389 24.06 2.41343 23.6532 2.82023L12.1949 14.2786C11.7881 14.6854 11.1285 14.6854 10.7217 14.2786C10.3149 13.8718 10.3149 13.2122 10.7217 12.8054L22.1801 1.34709C22.5869 0.940293 23.2464 0.940293 23.6532 1.34709Z" fill="#161719"/>
<path fill-rule="evenodd" clip-rule="evenodd" d="M23.6532 1.34712C23.9362 1.63007 24.032 2.05011 23.8998 2.4278L16.6081 23.2611C16.4671 23.6643 16.0942 23.9404 15.6674 23.9578C15.2407 23.9752 14.8465 23.7304 14.6731 23.3401L10.6691 14.3312L1.66024 10.3272C1.26994 10.1538 1.02509 9.75964 1.0425 9.33289C1.05991 8.90614 1.33606 8.53326 1.73918 8.39217L22.5725 1.1005C22.9502 0.968309 23.3702 1.06416 23.6532 1.34712ZM4.90733 9.49057L11.8814 12.5901C12.117 12.6949 12.3054 12.8833 12.4102 13.119L15.5097 20.093L21.2187 3.78157L4.90733 9.49057Z" fill="#161719"/>
</svg>
