<svg width="25" height="25" viewBox="0 0 25 25" fill="none" xmlns="http://www.w3.org/2000/svg">
<path fill-rule="evenodd" clip-rule="evenodd" d="M23.6532 1.34611C24.06 1.75291 24.06 2.41246 23.6532 2.81925L12.1949 14.2776C11.7881 14.6844 11.1285 14.6844 10.7217 14.2776C10.3149 13.8708 10.3149 13.2112 10.7217 12.8044L22.1801 1.34611C22.5869 0.939317 23.2464 0.939317 23.6532 1.34611Z" fill="white"/>
<path fill-rule="evenodd" clip-rule="evenodd" d="M23.6532 1.34614C23.9362 1.6291 24.032 2.04913 23.8998 2.42683L16.6081 23.2602C16.4671 23.6633 16.0942 23.9394 15.6674 23.9568C15.2407 23.9743 14.8465 23.7294 14.6731 23.3391L10.6691 14.3302L1.66024 10.3263C1.26994 10.1528 1.02509 9.75867 1.0425 9.33192C1.05991 8.90517 1.33606 8.53229 1.73918 8.39119L22.5725 1.09953C22.9502 0.967332 23.3702 1.06319 23.6532 1.34614ZM4.90733 9.48959L11.8814 12.5892C12.117 12.6939 12.3054 12.8823 12.4102 13.118L15.5097 20.092L21.2187 3.7806L4.90733 9.48959Z" fill="white"/>
</svg>
