<svg width="25" height="25" viewBox="0 0 25 25" fill="none" xmlns="http://www.w3.org/2000/svg">
<path fill-rule="evenodd" clip-rule="evenodd" d="M12.4999 10.4163C11.3493 10.4163 10.4166 11.3491 10.4166 12.4997C10.4166 13.6503 11.3493 14.583 12.4999 14.583C13.6505 14.583 14.5833 13.6503 14.5833 12.4997C14.5833 11.3491 13.6505 10.4163 12.4999 10.4163ZM8.33325 12.4997C8.33325 10.1985 10.1987 8.33301 12.4999 8.33301C14.8011 8.33301 16.6666 10.1985 16.6666 12.4997C16.6666 14.8009 14.8011 16.6663 12.4999 16.6663C10.1987 16.6663 8.33325 14.8009 8.33325 12.4997Z" fill="#161719"/>
<path fill-rule="evenodd" clip-rule="evenodd" d="M12.5 2.08333C12.2237 2.08333 11.9588 2.19308 11.7634 2.38843C11.5681 2.58378 11.4583 2.84873 11.4583 3.125V3.30624C11.4562 3.84458 11.2967 4.37055 10.9994 4.81939C10.7022 5.26823 10.2802 5.62037 9.78535 5.83244C9.69727 5.87019 9.6046 5.89551 9.51001 5.90788C9.06039 6.06533 8.57638 6.10414 8.10521 6.01871C7.5625 5.92031 7.06172 5.66158 6.66743 5.2759L6.65922 5.26786L6.59676 5.20532C6.50002 5.10847 6.38473 5.03123 6.25827 4.97881C6.13181 4.92638 5.99627 4.8994 5.85938 4.8994C5.72248 4.8994 5.58694 4.92638 5.46048 4.97881C5.33402 5.03123 5.21914 5.10806 5.1224 5.20491L5.12158 5.20573C5.02473 5.30247 4.94789 5.41736 4.89547 5.54381C4.84305 5.67027 4.81607 5.80582 4.81607 5.94271C4.81607 6.0796 4.84305 6.21515 4.89547 6.3416C4.94789 6.46806 5.02473 6.58294 5.12158 6.67969L5.19261 6.75072C5.57829 7.14501 5.83697 7.64584 5.93538 8.18854C6.03182 8.72045 5.96993 9.26871 5.75776 9.76539C5.56447 10.2722 5.22602 10.7111 4.78442 11.027C4.3339 11.3492 3.79686 11.5284 3.24311 11.5414L3.21875 11.5417H3.125C2.84873 11.5417 2.58378 11.6514 2.38843 11.8468C2.19308 12.0421 2.08333 12.3071 2.08333 12.5833C2.08333 12.8596 2.19308 13.1246 2.38843 13.3199C2.58378 13.5153 2.84873 13.625 3.125 13.625H3.30624C3.84458 13.6271 4.37055 13.7867 4.81939 14.0839C5.26667 14.3801 5.61792 14.8002 5.83022 15.2928C6.05113 15.7961 6.11678 16.3539 6.01871 16.8948C5.92031 17.4375 5.66158 17.9383 5.2759 18.3326L5.26786 18.3408L5.20532 18.4032C5.10847 18.5 5.03123 18.6153 4.97881 18.7417C4.92638 18.8682 4.8994 19.0037 4.8994 19.1406C4.8994 19.2775 4.92638 19.4131 4.97881 19.5395C5.03123 19.666 5.10806 19.7809 5.20491 19.8776L5.20573 19.8784C5.30247 19.9753 5.41735 20.0521 5.54381 20.1045C5.67027 20.1569 5.80582 20.1839 5.94271 20.1839C6.0796 20.1839 6.21515 20.1569 6.3416 20.1045C6.46806 20.0521 6.58295 19.9753 6.67969 19.8784L6.75072 19.8074C7.14501 19.4217 7.64584 19.163 8.18854 19.0646C8.72044 18.9682 9.26871 19.0301 9.76538 19.2422C10.2722 19.4355 10.7111 19.774 11.027 20.2156C11.3492 20.6661 11.5284 21.2031 11.5414 21.7569L11.5417 21.7812V21.875C11.5417 22.1513 11.6514 22.4162 11.8468 22.6116C12.0421 22.8069 12.3071 22.9167 12.5833 22.9167C12.8596 22.9167 13.1246 22.8069 13.3199 22.6116C13.5153 22.4162 13.625 22.1513 13.625 21.875V21.6979L13.625 21.6938C13.6272 21.1554 13.7867 20.6295 14.0839 20.1806C14.3802 19.7333 14.8003 19.382 15.293 19.1697C15.7962 18.9489 16.354 18.8832 16.8948 18.9813C17.4375 19.0797 17.9383 19.3384 18.3326 19.7241L18.3408 19.7321L18.4032 19.7947C18.5 19.8915 18.6153 19.9688 18.7417 20.0212C18.8682 20.0736 19.0037 20.1006 19.1406 20.1006C19.2775 20.1006 19.4131 20.0736 19.5395 20.0212C19.666 19.9688 19.7809 19.8919 19.8776 19.7951L19.8784 19.7943C19.9753 19.6975 20.0521 19.5826 20.1045 19.4562C20.1569 19.3297 20.1839 19.1942 20.1839 19.0573C20.1839 18.9204 20.1569 18.7849 20.1045 18.6584C20.0521 18.5319 19.9753 18.417 19.8784 18.3203L19.8074 18.2493C19.4217 17.855 19.163 17.3542 19.0646 16.8115C18.9666 16.2706 19.0322 15.7129 19.2531 15.2096C19.4654 14.717 19.8166 14.2968 20.2639 14.0006C20.7128 13.7033 21.2388 13.5438 21.7771 13.5417L21.7812 13.5417L21.875 13.5417C22.1513 13.5417 22.4162 13.4319 22.6116 13.2366C22.8069 13.0412 22.9167 12.7763 22.9167 12.5C22.9167 12.2237 22.8069 11.9588 22.6116 11.7634C22.4162 11.5681 22.1513 11.4583 21.875 11.4583H21.6979L21.6938 11.4583C21.1554 11.4562 20.6295 11.2967 20.1806 10.9994C19.7318 10.7022 19.3796 10.2802 19.1676 9.78535C19.1298 9.69727 19.1045 9.6046 19.0921 9.51001C18.9347 9.06039 18.8959 8.57638 18.9813 8.10521C19.0797 7.5625 19.3384 7.06172 19.7241 6.66743L19.7321 6.65922L19.7947 6.59677C19.8915 6.50002 19.9688 6.38473 20.0212 6.25827C20.0736 6.13181 20.1006 5.99626 20.1006 5.85938C20.1006 5.72249 20.0736 5.58694 20.0212 5.46048C19.9688 5.33402 19.8919 5.21914 19.7951 5.1224L19.7943 5.12158C19.6975 5.02472 19.5826 4.94789 19.4562 4.89547C19.3297 4.84305 19.1942 4.81607 19.0573 4.81607C18.9204 4.81607 18.7849 4.84305 18.6584 4.89547C18.5319 4.94789 18.4171 5.02473 18.3203 5.12158L18.2493 5.19261C17.855 5.57829 17.3542 5.83697 16.8115 5.93538C16.2706 6.03345 15.7128 5.96779 15.2095 5.74689C14.7169 5.53458 14.2968 5.18334 14.0006 4.73606C13.7033 4.28721 13.5438 3.76125 13.5417 3.2229L13.5417 3.21875V3.125C13.5417 2.84873 13.4319 2.58378 13.2366 2.38843C13.0412 2.19308 12.7763 2.08333 12.5 2.08333ZM20.2083 15.625L21.1613 16.0456C21.1067 16.1694 21.0904 16.3067 21.1145 16.4398C21.1384 16.5714 21.2007 16.693 21.2936 16.7892L21.3507 16.8464C21.3509 16.8465 21.3506 16.8462 21.3507 16.8464C21.6411 17.1365 21.8719 17.4814 22.0291 17.8606C22.1863 18.24 22.2673 18.6466 22.2673 19.0573C22.2673 19.468 22.1863 19.8746 22.0291 20.254C21.8718 20.6333 21.6413 20.978 21.3507 21.2682L20.6146 20.5312L21.3516 21.2674C21.0613 21.558 20.7167 21.7885 20.3373 21.9457C19.9579 22.103 19.5513 22.1839 19.1406 22.1839C18.7299 22.1839 18.3233 22.103 17.9439 21.9457C17.5647 21.7885 17.2202 21.5582 16.9301 21.2678C16.93 21.2677 16.9302 21.268 16.9301 21.2678L16.8726 21.2103C16.7764 21.1174 16.6548 21.0551 16.5231 21.0312C16.39 21.0071 16.2527 21.0234 16.1289 21.078L16.1187 21.0825C15.9973 21.1345 15.8938 21.2208 15.8209 21.3309C15.7483 21.4406 15.7092 21.569 15.7083 21.7005V21.875C15.7083 22.7038 15.3791 23.4987 14.793 24.0847C14.207 24.6708 13.4121 25 12.5833 25C11.7545 25 10.9597 24.6708 10.3736 24.0847C9.78757 23.4987 9.45833 22.7038 9.45833 21.875V21.7962C9.45339 21.6637 9.40965 21.5355 9.33244 21.4275C9.2534 21.317 9.14295 21.2329 9.01544 21.186C8.99484 21.1784 8.97449 21.1702 8.95441 21.1613C8.83064 21.1067 8.69335 21.0904 8.56023 21.1145C8.42856 21.1384 8.30695 21.2008 8.21073 21.2937L8.15365 21.3507C8.15351 21.3509 8.15378 21.3506 8.15365 21.3507C7.8635 21.6411 7.51859 21.8719 7.1394 22.0291C6.76003 22.1863 6.35338 22.2673 5.94271 22.2673C5.53203 22.2673 5.12539 22.1863 4.74602 22.0291C4.36701 21.8719 4.02265 21.6417 3.73259 21.3516C3.44204 21.0613 3.21154 20.7167 3.05428 20.3373C2.89702 19.9579 2.81607 19.5513 2.81607 19.1406C2.81607 18.7299 2.89702 18.3233 3.05428 17.9439C3.21154 17.5646 3.44204 17.2199 3.73259 16.9297L3.7897 16.8726C3.88259 16.7764 3.94493 16.6548 3.9688 16.5231C3.99294 16.39 3.97664 16.2527 3.92202 16.1289L3.91751 16.1187C3.86549 15.9973 3.77917 15.8938 3.66908 15.8209C3.55942 15.7483 3.43098 15.7092 3.29948 15.7083H3.125C2.2962 15.7083 1.50134 15.3791 0.915291 14.793C0.32924 14.207 0 13.4121 0 12.5833C0 11.7545 0.32924 10.9597 0.915291 10.3736C1.50134 9.78757 2.2962 9.45833 3.125 9.45833H3.20379C3.33629 9.45339 3.46449 9.40965 3.57245 9.33244C3.68296 9.2534 3.76713 9.14295 3.81402 9.01544C3.8216 8.99484 3.82982 8.97449 3.83868 8.95441C3.89331 8.83064 3.9096 8.69335 3.88547 8.56023C3.86159 8.42856 3.79925 8.30696 3.70635 8.21074L3.64926 8.15365C3.35871 7.86342 3.12821 7.51877 2.97095 7.1394C2.81368 6.76003 2.73274 6.35338 2.73274 5.94271C2.73274 5.53203 2.81368 5.12539 2.97095 4.74602C3.12813 4.36683 3.35849 4.02232 3.64885 3.73218C3.93899 3.44182 4.2835 3.21147 4.66269 3.05428C5.04206 2.89702 5.4487 2.81607 5.85938 2.81607C6.27005 2.81607 6.67669 2.89702 7.05606 3.05428C7.43543 3.21154 7.78008 3.44204 8.07031 3.73259L8.12741 3.78968C8.22363 3.88258 8.34523 3.94493 8.4769 3.9688C8.61001 3.99294 8.74731 3.97664 8.87108 3.92202C8.93779 3.89258 9.00721 3.8703 9.0782 3.85544C9.15082 3.80614 9.21352 3.74295 9.26244 3.66908C9.33507 3.55942 9.37418 3.43098 9.375 3.29948V3.125C9.375 2.2962 9.70424 1.50134 10.2903 0.915291C10.8763 0.32924 11.6712 0 12.5 0C13.3288 0 14.1237 0.32924 14.7097 0.915291C15.2958 1.50134 15.625 2.2962 15.625 3.125V3.21614C15.6258 3.34765 15.6649 3.47608 15.7376 3.58575C15.8105 3.69584 15.914 3.78221 16.0353 3.83423L16.0456 3.83863C16.1694 3.89325 16.3067 3.9096 16.4398 3.88547C16.5714 3.86159 16.693 3.79925 16.7892 3.70636L16.8464 3.64926C17.1366 3.3587 17.4812 3.12821 17.8606 2.97095C18.24 2.81368 18.6466 2.73274 19.0573 2.73274C19.468 2.73274 19.8746 2.81368 20.254 2.97095C20.6333 3.12821 20.978 3.35871 21.2682 3.64926C21.5584 3.93931 21.7886 4.28367 21.9457 4.66269C22.103 5.04205 22.1839 5.4487 22.1839 5.85938C22.1839 6.27005 22.103 6.6767 21.9457 7.05606C21.7885 7.43525 21.5582 7.77976 21.2678 8.0699C21.2677 8.07004 21.268 8.06976 21.2678 8.0699L21.2103 8.1274C21.1174 8.22362 21.0551 8.34523 21.0312 8.4769C21.0071 8.61001 21.0234 8.74731 21.078 8.87108C21.1074 8.93779 21.1297 9.00721 21.1446 9.07819C21.1939 9.15082 21.257 9.21352 21.3309 9.26244C21.4406 9.33507 21.569 9.37418 21.7005 9.375H21.875C22.7038 9.375 23.4987 9.70424 24.0847 10.2903C24.6708 10.8763 25 11.6712 25 12.5C25 13.3288 24.6708 14.1237 24.0847 14.7097C23.4987 15.2958 22.7038 15.625 21.875 15.625H21.7839C21.6523 15.6258 21.5239 15.6649 21.4143 15.7376C21.3042 15.8105 21.2178 15.914 21.1658 16.0353L20.2083 15.625Z" fill="#161719"/>
</svg>
