<svg width="20" height="20" viewBox="0 0 20 20" fill="none" xmlns="http://www.w3.org/2000/svg">
<path fill-rule="evenodd" clip-rule="evenodd" d="M3.33333 10.833C3.79357 10.833 4.16667 11.2061 4.16667 11.6663V17.4997C4.16667 17.9599 3.79357 18.333 3.33333 18.333C2.8731 18.333 2.5 17.9599 2.5 17.4997V11.6663C2.5 11.2061 2.8731 10.833 3.33333 10.833Z" fill="white"/>
<path fill-rule="evenodd" clip-rule="evenodd" d="M3.33333 1.66699C3.79357 1.66699 4.16667 2.04009 4.16667 2.50033V8.33366C4.16667 8.7939 3.79357 9.16699 3.33333 9.16699C2.8731 9.16699 2.5 8.7939 2.5 8.33366V2.50033C2.5 2.04009 2.8731 1.66699 3.33333 1.66699Z" fill="white"/>
<path fill-rule="evenodd" clip-rule="evenodd" d="M10 9.16699C10.4603 9.16699 10.8334 9.54009 10.8334 10.0003V17.5003C10.8334 17.9606 10.4603 18.3337 10 18.3337C9.53978 18.3337 9.16669 17.9606 9.16669 17.5003V10.0003C9.16669 9.54009 9.53978 9.16699 10 9.16699Z" fill="white"/>
<path fill-rule="evenodd" clip-rule="evenodd" d="M10 1.66699C10.4603 1.66699 10.8334 2.04009 10.8334 2.50033V6.66699C10.8334 7.12723 10.4603 7.50033 10 7.50033C9.53978 7.50033 9.16669 7.12723 9.16669 6.66699V2.50033C9.16669 2.04009 9.53978 1.66699 10 1.66699Z" fill="white"/>
<path fill-rule="evenodd" clip-rule="evenodd" d="M16.6666 12.5C17.1269 12.5 17.5 12.8731 17.5 13.3333V17.5C17.5 17.9602 17.1269 18.3333 16.6666 18.3333C16.2064 18.3333 15.8333 17.9602 15.8333 17.5V13.3333C15.8333 12.8731 16.2064 12.5 16.6666 12.5Z" fill="white"/>
<path fill-rule="evenodd" clip-rule="evenodd" d="M16.6666 1.66699C17.1269 1.66699 17.5 2.04009 17.5 2.50033V10.0003C17.5 10.4606 17.1269 10.8337 16.6666 10.8337C16.2064 10.8337 15.8333 10.4606 15.8333 10.0003V2.50033C15.8333 2.04009 16.2064 1.66699 16.6666 1.66699Z" fill="white"/>
<path fill-rule="evenodd" clip-rule="evenodd" d="M0 11.6663C0 11.2061 0.373096 10.833 0.833333 10.833H5.83333C6.29357 10.833 6.66667 11.2061 6.66667 11.6663C6.66667 12.1266 6.29357 12.4997 5.83333 12.4997H0.833333C0.373096 12.4997 0 12.1266 0 11.6663Z" fill="white"/>
<path fill-rule="evenodd" clip-rule="evenodd" d="M6.66669 6.66634C6.66669 6.2061 7.03978 5.83301 7.50002 5.83301H12.5C12.9603 5.83301 13.3334 6.2061 13.3334 6.66634C13.3334 7.12658 12.9603 7.49967 12.5 7.49967H7.50002C7.03978 7.49967 6.66669 7.12658 6.66669 6.66634Z" fill="white"/>
<path fill-rule="evenodd" clip-rule="evenodd" d="M13.3333 13.3333C13.3333 12.8731 13.7064 12.5 14.1666 12.5H19.1666C19.6269 12.5 20 12.8731 20 13.3333C20 13.7936 19.6269 14.1667 19.1666 14.1667H14.1666C13.7064 14.1667 13.3333 13.7936 13.3333 13.3333Z" fill="white"/>
</svg>
