<svg width="36" height="36" viewBox="0 0 36 36" fill="none" xmlns="http://www.w3.org/2000/svg">
<path fill-rule="evenodd" clip-rule="evenodd" d="M18.3333 0.527344C18.9388 0.527344 19.4918 0.882362 19.7598 1.44314L24.3059 10.9549L34.4724 12.4896C35.0715 12.5801 35.5689 13.0138 35.7556 13.6086C35.9424 14.2034 35.786 14.8561 35.3523 15.2924L27.9972 22.6911L29.7331 33.1435C29.8354 33.76 29.59 34.383 29.1001 34.7506C28.6101 35.1182 27.9606 35.1666 27.4246 34.8755L18.3333 29.9377L9.24195 34.8755C8.70595 35.1666 8.05639 35.1182 7.56643 34.7506C7.07647 34.383 6.83108 33.76 6.93345 33.1435L8.66927 22.6911L1.31418 15.2924C0.880467 14.8561 0.724124 14.2034 0.910861 13.6086C1.0976 13.0138 1.59504 12.5801 2.19411 12.4896L12.3606 10.9549L16.9067 1.44314C17.1747 0.882362 17.7277 0.527344 18.3333 0.527344ZM18.3333 5.88247L14.8439 13.1832C14.6124 13.6676 14.1651 14.0036 13.6474 14.0817L5.84212 15.26L11.4888 20.9401C11.864 21.3175 12.0353 21.8616 11.9467 22.3948L10.6145 30.4172L17.5928 26.6271C18.0563 26.3754 18.6102 26.3754 19.0737 26.6271L26.052 30.4172L24.7198 22.3948C24.6312 21.8616 24.8025 21.3175 25.1777 20.9401L30.8244 15.26L23.0191 14.0817C22.5015 14.0036 22.0541 13.6676 21.8226 13.1832L18.3333 5.88247Z" fill="#FF9901"/>
</svg>
