<svg width="20" height="20" viewBox="0 0 20 20" fill="none" xmlns="http://www.w3.org/2000/svg">
<path fill-rule="evenodd" clip-rule="evenodd" d="M9.99994 0.833984C10.3171 0.833984 10.6068 1.01404 10.7472 1.29846L13.1285 6.12271L18.4538 6.90108C18.7676 6.94695 19.0282 7.16695 19.126 7.46862C19.2238 7.7703 19.1419 8.10134 18.9147 8.32262L15.062 12.0751L15.9713 17.3764C16.0249 17.6891 15.8964 18.0051 15.6397 18.1915C15.3831 18.378 15.0428 18.4025 14.7621 18.2549L9.99994 15.7505L5.23782 18.2549C4.95706 18.4025 4.61681 18.378 4.36016 18.1915C4.10352 18.0051 3.97498 17.6891 4.0286 17.3764L4.93784 12.0751L1.08517 8.32262C0.857984 8.10134 0.77609 7.7703 0.873905 7.46862C0.971719 7.16695 1.23229 6.94695 1.54609 6.90108L6.87139 6.12271L9.25269 1.29846C9.39308 1.01404 9.68276 0.833984 9.99994 0.833984ZM9.99994 3.55003L8.1722 7.25284C8.05092 7.49854 7.81659 7.66893 7.54547 7.70856L3.45695 8.30615L6.41472 11.187C6.61128 11.3785 6.701 11.6544 6.65462 11.9249L5.95676 15.9937L9.61207 14.0714C9.85489 13.9437 10.145 13.9437 10.3878 14.0714L14.0431 15.9937L13.3453 11.9249C13.2989 11.6544 13.3886 11.3785 13.5852 11.187L16.5429 8.30615L12.4544 7.70856C12.1833 7.66893 11.949 7.49854 11.8277 7.25284L9.99994 3.55003Z" fill="white"/>
</svg>
