<svg width="25" height="25" viewBox="0 0 25 25" fill="none" xmlns="http://www.w3.org/2000/svg">
<path fill-rule="evenodd" clip-rule="evenodd" d="M13.3333 0.833008C13.7658 0.833008 14.1608 1.08999 14.3522 1.49592L17.5994 8.38113L24.8612 9.49204C25.2891 9.5575 25.6444 9.87149 25.7778 10.302C25.9112 10.7326 25.7995 11.2051 25.4897 11.5209L20.2361 16.8765L21.476 24.4426C21.5491 24.8888 21.3738 25.3398 21.0238 25.6059C20.6739 25.872 20.2099 25.907 19.827 25.6963L13.3333 22.1221L6.83946 25.6963C6.45661 25.907 5.99264 25.872 5.64266 25.6059C5.29269 25.3398 5.11741 24.8888 5.19054 24.4426L6.4304 16.8765L1.17677 11.5209C0.866977 11.2051 0.755304 10.7326 0.888687 10.302C1.02207 9.87149 1.37739 9.5575 1.8053 9.49204L9.06706 8.38113L12.3143 1.49592C12.5057 1.08999 12.9007 0.833008 13.3333 0.833008ZM13.3333 4.70938L10.8409 9.99407C10.6755 10.3447 10.356 10.5879 9.98625 10.6445L4.41102 11.4974L8.44432 15.609C8.71236 15.8822 8.83471 16.2761 8.77145 16.662L7.81983 22.4692L12.8043 19.7256C13.1354 19.5434 13.5311 19.5434 13.8622 19.7256L18.8467 22.4692L17.895 16.662C17.8318 16.2761 17.9541 15.8822 18.2222 15.609L22.2555 11.4974L16.6803 10.6445C16.3105 10.5879 15.991 10.3447 15.8256 9.99407L13.3333 4.70938Z" fill="#161719"/>
</svg>
