<svg width="95" height="95" viewBox="0 0 95 95" fill="none" xmlns="http://www.w3.org/2000/svg">
<path fill-rule="evenodd" clip-rule="evenodd" d="M39.9244 6.30871C40.5597 4.87924 41.9772 3.95801 43.5415 3.95801C47.7408 3.95801 51.7681 5.62616 54.7374 8.59548C57.7067 11.5648 59.3749 15.5921 59.3749 19.7913V31.6663H77.8005C79.5134 31.6505 81.2097 32.0054 82.7727 32.7069C84.3432 33.4118 85.7417 34.4497 86.8713 35.7487C88.0009 37.0477 88.8345 38.5768 89.3145 40.23C89.7944 41.8831 89.9092 43.6209 89.6509 45.3228L84.1885 80.9473C84.1883 80.9484 84.1886 80.9463 84.1885 80.9473C83.7585 83.7777 82.3199 86.3607 80.1385 88.2149C77.9625 90.0645 75.1929 91.0678 72.3377 91.0413H15.8332C12.6837 91.0413 9.66329 89.7902 7.4363 87.5632C5.2093 85.3362 3.95819 82.3158 3.95819 79.1663V51.458C3.95819 48.3086 5.2093 45.2881 7.4363 43.0611C9.66329 40.8341 12.6837 39.583 15.8332 39.583H25.1358L39.9244 6.30871ZM23.7499 47.4997H15.8332C14.7834 47.4997 13.7766 47.9167 13.0342 48.659C12.2919 49.4014 11.8749 50.4082 11.8749 51.458V79.1663C11.8749 80.2161 12.2919 81.223 13.0342 81.9653C13.7766 82.7076 14.7834 83.1247 15.8332 83.1247H23.7499V47.4997ZM31.6665 83.1247H72.4029C73.3576 83.1355 74.2839 82.8011 75.0113 82.1828C75.7387 81.5646 76.2181 80.7042 76.3613 79.7603L81.8239 44.1348C81.8239 44.1343 81.8238 44.1354 81.8239 44.1348C81.9097 43.568 81.8716 42.9878 81.7117 42.4372C81.5517 41.8862 81.2738 41.3765 80.8973 40.9435C80.5208 40.5105 80.0546 40.1645 79.5311 39.9295C79.0076 39.6946 78.4393 39.5763 77.8655 39.5828L77.8207 39.5833L55.4165 39.583C53.2304 39.583 51.4582 37.8108 51.4582 35.6247V19.7913C51.4582 17.6917 50.6241 15.6781 49.1395 14.1934C48.2376 13.2915 47.1405 12.6297 45.9475 12.2491L31.6665 44.3814V83.1247Z" fill="white"/>
</svg>
