<svg width="20" height="20" viewBox="0 0 20 20" fill="none" xmlns="http://www.w3.org/2000/svg">
<path fill-rule="evenodd" clip-rule="evenodd" d="M1.6665 4.99935C1.6665 4.53911 2.0396 4.16602 2.49984 4.16602H17.4998C17.9601 4.16602 18.3332 4.53911 18.3332 4.99935C18.3332 5.45959 17.9601 5.83268 17.4998 5.83268H2.49984C2.0396 5.83268 1.6665 5.45959 1.6665 4.99935Z" fill="#161719"/>
<path fill-rule="evenodd" clip-rule="evenodd" d="M8.3335 2.50065C8.11248 2.50065 7.90052 2.58845 7.74424 2.74473C7.58796 2.90101 7.50016 3.11297 7.50016 3.33398V4.16732H12.5002V3.33398C12.5002 3.11297 12.4124 2.90101 12.2561 2.74473C12.0998 2.58845 11.8878 2.50065 11.6668 2.50065H8.3335ZM14.1668 4.16732V3.33398C14.1668 2.67094 13.9034 2.03506 13.4346 1.56622C12.9658 1.09738 12.3299 0.833984 11.6668 0.833984H8.3335C7.67045 0.833984 7.03457 1.09738 6.56573 1.56622C6.09689 2.03506 5.8335 2.67094 5.8335 3.33398V4.16732H4.16683C3.70659 4.16732 3.3335 4.54041 3.3335 5.00065V16.6673C3.3335 17.3304 3.59689 17.9662 4.06573 18.4351C4.53457 18.9039 5.17045 19.1673 5.8335 19.1673H14.1668C14.8299 19.1673 15.4658 18.9039 15.9346 18.4351C16.4034 17.9662 16.6668 17.3304 16.6668 16.6673V5.00065C16.6668 4.54041 16.2937 4.16732 15.8335 4.16732H14.1668ZM5.00016 5.83398V16.6673C5.00016 16.8883 5.08796 17.1003 5.24424 17.2566C5.40052 17.4129 5.61248 17.5006 5.8335 17.5006H14.1668C14.3878 17.5006 14.5998 17.4129 14.7561 17.2566C14.9124 17.1003 15.0002 16.8883 15.0002 16.6673V5.83398H5.00016Z" fill="#161719"/>
<path fill-rule="evenodd" clip-rule="evenodd" d="M8.33333 8.33398C8.79357 8.33398 9.16667 8.70708 9.16667 9.16732V14.1673C9.16667 14.6276 8.79357 15.0007 8.33333 15.0007C7.8731 15.0007 7.5 14.6276 7.5 14.1673V9.16732C7.5 8.70708 7.8731 8.33398 8.33333 8.33398Z" fill="#161719"/>
<path fill-rule="evenodd" clip-rule="evenodd" d="M11.6668 8.33398C12.1271 8.33398 12.5002 8.70708 12.5002 9.16732V14.1673C12.5002 14.6276 12.1271 15.0007 11.6668 15.0007C11.2066 15.0007 10.8335 14.6276 10.8335 14.1673V9.16732C10.8335 8.70708 11.2066 8.33398 11.6668 8.33398Z" fill="#161719"/>
</svg>
