<svg width="25" height="25" viewBox="0 0 25 25" fill="none" xmlns="http://www.w3.org/2000/svg">
<path fill-rule="evenodd" clip-rule="evenodd" d="M12.5 2.08333C9.04818 2.08333 6.24996 4.88155 6.24996 8.33333C6.24996 11.7851 9.04818 14.5833 12.5 14.5833C15.9517 14.5833 18.75 11.7851 18.75 8.33333C18.75 4.88155 15.9517 2.08333 12.5 2.08333ZM4.16663 8.33333C4.16663 3.73096 7.89759 0 12.5 0C17.1023 0 20.8333 3.73096 20.8333 8.33333C20.8333 12.9357 17.1023 16.6667 12.5 16.6667C7.89759 16.6667 4.16663 12.9357 4.16663 8.33333Z" fill="#FF9901"/>
<path fill-rule="evenodd" clip-rule="evenodd" d="M16.3109 13.4262C16.8812 13.3505 17.4049 13.7515 17.4806 14.3218L18.741 23.8218C18.7936 24.2183 18.6145 24.6099 18.2802 24.8294C17.9459 25.049 17.5154 25.0578 17.1724 24.852L12.5 22.0486L7.82762 24.852C7.48463 25.0578 7.05409 25.049 6.71978 24.8294C6.38546 24.6098 6.20643 24.2181 6.25909 23.8216L7.51951 14.332C7.59526 13.7618 8.11897 13.3609 8.68926 13.4366C9.25955 13.5123 9.66045 14.0361 9.58471 14.6063L8.60882 21.9537L11.9641 19.9406C12.294 19.7426 12.7061 19.7426 13.036 19.9406L16.3916 21.9539L15.4153 14.5958C15.3397 14.0255 15.7406 13.5018 16.3109 13.4262Z" fill="#FF9901"/>
</svg>
