<svg width="25" height="25" viewBox="0 0 25 25" fill="none" xmlns="http://www.w3.org/2000/svg">
<path fill-rule="evenodd" clip-rule="evenodd" d="M18.75 9.375C19.3253 9.375 19.7917 9.84137 19.7917 10.4167V20.8333C19.7917 21.4086 19.3253 21.875 18.75 21.875C18.1747 21.875 17.7084 21.4086 17.7084 20.8333V10.4167C17.7084 9.84137 18.1747 9.375 18.75 9.375Z" fill="#FF9901"/>
<path fill-rule="evenodd" clip-rule="evenodd" d="M12.5 3.125C13.0753 3.125 13.5417 3.59137 13.5417 4.16667V20.8333C13.5417 21.4086 13.0753 21.875 12.5 21.875C11.9247 21.875 11.4584 21.4086 11.4584 20.8333V4.16667C11.4584 3.59137 11.9247 3.125 12.5 3.125Z" fill="#FF9901"/>
<path fill-rule="evenodd" clip-rule="evenodd" d="M6.25004 13.542C6.82534 13.542 7.29171 14.0084 7.29171 14.5837V20.8337C7.29171 21.409 6.82534 21.8753 6.25004 21.8753C5.67474 21.8753 5.20837 21.409 5.20837 20.8337V14.5837C5.20837 14.0084 5.67474 13.542 6.25004 13.542Z" fill="#FF9901"/>
</svg>
