<svg width="25" height="25" viewBox="0 0 25 25" fill="none" xmlns="http://www.w3.org/2000/svg">
<path fill-rule="evenodd" clip-rule="evenodd" d="M6.77083 18.7503C6.35643 18.7503 5.959 18.9149 5.66598 19.208C5.37295 19.501 5.20833 19.8984 5.20833 20.3128C5.20833 20.8881 4.74196 21.3545 4.16667 21.3545C3.59137 21.3545 3.125 20.8881 3.125 20.3128C3.125 19.3459 3.50911 18.4186 4.19284 17.7348C4.87657 17.0511 5.8039 16.667 6.77083 16.667H20.8333C21.4086 16.667 21.875 17.1334 21.875 17.7087C21.875 18.284 21.4086 18.7503 20.8333 18.7503H6.77083Z" fill="#FF9901"/>
<path fill-rule="evenodd" clip-rule="evenodd" d="M6.77083 3.12533C6.35643 3.12533 5.959 3.28995 5.66598 3.58297C5.37295 3.876 5.20833 4.27342 5.20833 4.68782V20.3128C5.20833 20.7272 5.37295 21.1247 5.66598 21.4177C5.959 21.7107 6.35643 21.8753 6.77083 21.8753H19.7917V3.12533H6.77083ZM6.77083 1.04199H20.8333C21.4086 1.04199 21.875 1.50836 21.875 2.08366V22.917C21.875 23.4923 21.4086 23.9587 20.8333 23.9587H6.77083C5.8039 23.9587 4.87657 23.5745 4.19284 22.8908C3.50911 22.2071 3.125 21.2798 3.125 20.3128V4.68782C3.125 3.72089 3.50911 2.79356 4.19284 2.10983C4.87657 1.42611 5.8039 1.04199 6.77083 1.04199Z" fill="#FF9901"/>
</svg>
