<svg width="25" height="25" viewBox="0 0 25 25" fill="none" xmlns="http://www.w3.org/2000/svg">
<path fill-rule="evenodd" clip-rule="evenodd" d="M5.20837 5.20833C4.63308 5.20833 4.16671 5.6747 4.16671 6.25V20.8333C4.16671 21.4086 4.63308 21.875 5.20837 21.875H19.7917C20.367 21.875 20.8334 21.4086 20.8334 20.8333V6.25C20.8334 5.6747 20.367 5.20833 19.7917 5.20833H5.20837ZM2.08337 6.25C2.08337 4.52411 3.48248 3.125 5.20837 3.125H19.7917C21.5176 3.125 22.9167 4.52411 22.9167 6.25V20.8333C22.9167 22.5592 21.5176 23.9583 19.7917 23.9583H5.20837C3.48248 23.9583 2.08337 22.5592 2.08337 20.8333V6.25Z" fill="#FF9901"/>
<path fill-rule="evenodd" clip-rule="evenodd" d="M16.6667 1.04199C17.242 1.04199 17.7083 1.50836 17.7083 2.08366V6.25033C17.7083 6.82562 17.242 7.29199 16.6667 7.29199C16.0914 7.29199 15.625 6.82562 15.625 6.25033V2.08366C15.625 1.50836 16.0914 1.04199 16.6667 1.04199Z" fill="#FF9901"/>
<path fill-rule="evenodd" clip-rule="evenodd" d="M8.33329 1.04199C8.90859 1.04199 9.37496 1.50836 9.37496 2.08366V6.25033C9.37496 6.82562 8.90859 7.29199 8.33329 7.29199C7.758 7.29199 7.29163 6.82562 7.29163 6.25033V2.08366C7.29163 1.50836 7.758 1.04199 8.33329 1.04199Z" fill="#FF9901"/>
<path fill-rule="evenodd" clip-rule="evenodd" d="M2.08337 10.4167C2.08337 9.84137 2.54974 9.375 3.12504 9.375H21.875C22.4503 9.375 22.9167 9.84137 22.9167 10.4167C22.9167 10.992 22.4503 11.4583 21.875 11.4583H3.12504C2.54974 11.4583 2.08337 10.992 2.08337 10.4167Z" fill="#FF9901"/>
</svg>
