<svg width="19" height="23" viewBox="0 0 19 23" fill="none" xmlns="http://www.w3.org/2000/svg">
<path fill-rule="evenodd" clip-rule="evenodd" d="M3.77083 2.12533C3.35643 2.12533 2.959 2.28995 2.66598 2.58297C2.37295 2.876 2.20833 3.27342 2.20833 3.68782V19.3128C2.20833 19.7272 2.37295 20.1247 2.66598 20.4177C2.959 20.7107 3.35643 20.8753 3.77083 20.8753H16.7917V2.12533H3.77083ZM3.77083 0.0419922H17.8333C18.4086 0.0419922 18.875 0.508362 18.875 1.08366V21.917C18.875 22.4923 18.4086 22.9587 17.8333 22.9587H3.77083C2.8039 22.9587 1.87657 22.5745 1.19284 21.8908C0.509113 21.2071 0.125 20.2798 0.125 19.3128V3.68782C0.125 2.72089 0.509113 1.79356 1.19284 1.10983C1.87657 0.426105 2.8039 0.0419922 3.77083 0.0419922Z" fill="#FF9901"/>
</svg>
