<svg width="25" height="25" viewBox="0 0 25 25" fill="none" xmlns="http://www.w3.org/2000/svg">
<path fill-rule="evenodd" clip-rule="evenodd" d="M4.04029 1.95728C4.62634 1.37123 5.4212 1.04199 6.25 1.04199H14.5833C14.8596 1.04199 15.1246 1.15174 15.3199 1.34709L21.5699 7.59709C21.7653 7.79244 21.875 8.05739 21.875 8.33366V20.8337C21.875 21.6625 21.5458 22.4573 20.9597 23.0434C20.3737 23.6294 19.5788 23.9587 18.75 23.9587H6.25C5.4212 23.9587 4.62634 23.6294 4.04029 23.0434C3.45424 22.4573 3.125 21.6625 3.125 20.8337V4.16699C3.125 3.33819 3.45424 2.54333 4.04029 1.95728ZM6.25 3.12533C5.97373 3.12533 5.70878 3.23507 5.51343 3.43042C5.31808 3.62577 5.20833 3.89072 5.20833 4.16699V20.8337C5.20833 21.1099 5.31808 21.3749 5.51343 21.5702C5.70878 21.7656 5.97373 21.8753 6.25 21.8753H18.75C19.0263 21.8753 19.2912 21.7656 19.4866 21.5702C19.6819 21.3749 19.7917 21.1099 19.7917 20.8337V8.76513L14.1519 3.12533H6.25Z" fill="#FF9901"/>
<path fill-rule="evenodd" clip-rule="evenodd" d="M14.5833 1.04199C15.1586 1.04199 15.625 1.50836 15.625 2.08366V7.29199H20.8333C21.4086 7.29199 21.875 7.75836 21.875 8.33366C21.875 8.90896 21.4086 9.37533 20.8333 9.37533H14.5833C14.008 9.37533 13.5416 8.90896 13.5416 8.33366V2.08366C13.5416 1.50836 14.008 1.04199 14.5833 1.04199Z" fill="#FF9901"/>
<path fill-rule="evenodd" clip-rule="evenodd" d="M7.29163 13.5417C7.29163 12.9664 7.758 12.5 8.33329 12.5H16.6666C17.2419 12.5 17.7083 12.9664 17.7083 13.5417C17.7083 14.117 17.2419 14.5833 16.6666 14.5833H8.33329C7.758 14.5833 7.29163 14.117 7.29163 13.5417Z" fill="#FF9901"/>
<path fill-rule="evenodd" clip-rule="evenodd" d="M7.29163 17.7087C7.29163 17.1334 7.758 16.667 8.33329 16.667H16.6666C17.2419 16.667 17.7083 17.1334 17.7083 17.7087C17.7083 18.284 17.2419 18.7503 16.6666 18.7503H8.33329C7.758 18.7503 7.29163 18.284 7.29163 17.7087Z" fill="#FF9901"/>
<path fill-rule="evenodd" clip-rule="evenodd" d="M7.29163 9.37467C7.29163 8.79938 7.758 8.33301 8.33329 8.33301H10.4166C10.9919 8.33301 11.4583 8.79938 11.4583 9.37467C11.4583 9.94997 10.9919 10.4163 10.4166 10.4163H8.33329C7.758 10.4163 7.29163 9.94997 7.29163 9.37467Z" fill="#FF9901"/>
</svg>
