<svg width="25" height="25" viewBox="0 0 25 25" fill="none" xmlns="http://www.w3.org/2000/svg">
<path fill-rule="evenodd" clip-rule="evenodd" d="M12.4998 3.12533C7.32217 3.12533 3.12484 7.32265 3.12484 12.5003C3.12484 17.678 7.32217 21.8753 12.4998 21.8753C17.6775 21.8753 21.8748 17.678 21.8748 12.5003C21.8748 7.32265 17.6775 3.12533 12.4998 3.12533ZM1.0415 12.5003C1.0415 6.17206 6.17157 1.04199 12.4998 1.04199C18.8281 1.04199 23.9582 6.17206 23.9582 12.5003C23.9582 18.8286 18.8281 23.9587 12.4998 23.9587C6.17157 23.9587 1.0415 18.8286 1.0415 12.5003Z" fill="#FF9901"/>
<path fill-rule="evenodd" clip-rule="evenodd" d="M1.0415 12.4997C1.0415 11.9244 1.50787 11.458 2.08317 11.458H22.9165C23.4918 11.458 23.9582 11.9244 23.9582 12.4997C23.9582 13.075 23.4918 13.5413 22.9165 13.5413H2.08317C1.50787 13.5413 1.0415 13.075 1.0415 12.4997Z" fill="#FF9901"/>
<path fill-rule="evenodd" clip-rule="evenodd" d="M9.37508 12.5C9.44647 15.703 10.548 18.7867 12.4998 21.3013C14.4517 18.7867 15.5532 15.703 15.6246 12.5C15.5532 9.29709 14.4517 6.21343 12.4998 3.6988C10.548 6.21343 9.44647 9.29709 9.37508 12.5ZM12.4998 2.08338L11.7307 1.38086C8.95493 4.41974 7.37745 8.36344 7.29173 12.4784C7.29143 12.4928 7.29143 12.5073 7.29173 12.5217C7.37745 16.6367 8.95493 20.5804 11.7307 23.6192C11.9281 23.8353 12.2072 23.9584 12.4998 23.9584C12.7925 23.9584 13.0716 23.8353 13.2689 23.6192C16.0447 20.5804 17.6222 16.6367 17.7079 12.5217C17.7082 12.5073 17.7082 12.4928 17.7079 12.4784C17.6222 8.36344 16.0447 4.41974 13.2689 1.38086L12.4998 2.08338Z" fill="#FF9901"/>
</svg>
