<svg width="25" height="25" viewBox="0 0 25 25" fill="none" xmlns="http://www.w3.org/2000/svg">
<path fill-rule="evenodd" clip-rule="evenodd" d="M12.5 1.04199C13.0753 1.04199 13.5417 1.50836 13.5417 2.08366V6.25033C13.5417 6.82562 13.0753 7.29199 12.5 7.29199C11.9247 7.29199 11.4584 6.82562 11.4584 6.25033V2.08366C11.4584 1.50836 11.9247 1.04199 12.5 1.04199Z" fill="#FF9901"/>
<path fill-rule="evenodd" clip-rule="evenodd" d="M12.5 17.708C13.0753 17.708 13.5417 18.1744 13.5417 18.7497V22.9163C13.5417 23.4916 13.0753 23.958 12.5 23.958C11.9247 23.958 11.4584 23.4916 11.4584 22.9163V18.7497C11.4584 18.1744 11.9247 17.708 12.5 17.708Z" fill="#FF9901"/>
<path fill-rule="evenodd" clip-rule="evenodd" d="M4.39885 4.39885C4.80564 3.99205 5.46519 3.99205 5.87199 4.39885L8.8199 7.34676C9.2267 7.75356 9.2267 8.41311 8.8199 8.8199C8.41311 9.2267 7.75356 9.2267 7.34676 8.8199L4.39885 5.87199C3.99205 5.46519 3.99205 4.80564 4.39885 4.39885Z" fill="#FF9901"/>
<path fill-rule="evenodd" clip-rule="evenodd" d="M16.1801 16.1801C16.5869 15.7733 17.2464 15.7733 17.6532 16.1801L20.6012 19.128C21.0079 19.5348 21.0079 20.1944 20.6012 20.6012C20.1944 21.008 19.5348 21.008 19.128 20.6012L16.1801 17.6532C15.7733 17.2464 15.7733 16.5869 16.1801 16.1801Z" fill="#FF9901"/>
<path fill-rule="evenodd" clip-rule="evenodd" d="M1.04163 12.4997C1.04163 11.9244 1.508 11.458 2.08329 11.458H6.24996C6.82526 11.458 7.29163 11.9244 7.29163 12.4997C7.29163 13.075 6.82526 13.5413 6.24996 13.5413H2.08329C1.508 13.5413 1.04163 13.075 1.04163 12.4997Z" fill="#FF9901"/>
<path fill-rule="evenodd" clip-rule="evenodd" d="M17.7084 12.4997C17.7084 11.9244 18.1747 11.458 18.75 11.458H22.9167C23.492 11.458 23.9584 11.9244 23.9584 12.4997C23.9584 13.075 23.492 13.5413 22.9167 13.5413H18.75C18.1747 13.5413 17.7084 13.075 17.7084 12.4997Z" fill="#FF9901"/>
<path fill-rule="evenodd" clip-rule="evenodd" d="M8.8199 16.1801C9.2267 16.5869 9.2267 17.2464 8.8199 17.6532L5.87199 20.6012C5.46519 21.008 4.80564 21.008 4.39885 20.6012C3.99205 20.1944 3.99205 19.5348 4.39885 19.128L7.34676 16.1801C7.75356 15.7733 8.41311 15.7733 8.8199 16.1801Z" fill="#FF9901"/>
<path fill-rule="evenodd" clip-rule="evenodd" d="M20.6012 4.39885C21.0079 4.80564 21.0079 5.46519 20.6012 5.87199L17.6532 8.8199C17.2464 9.2267 16.5869 9.2267 16.1801 8.8199C15.7733 8.41311 15.7733 7.75356 16.1801 7.34676L19.128 4.39885C19.5348 3.99205 20.1944 3.99205 20.6012 4.39885Z" fill="#FF9901"/>
</svg>
