<svg width="25" height="25" viewBox="0 0 25 25" fill="none" xmlns="http://www.w3.org/2000/svg">
<path fill-rule="evenodd" clip-rule="evenodd" d="M4.1665 5.20833C3.59597 5.20833 3.12484 5.67946 3.12484 6.25V18.75C3.12484 19.3205 3.59597 19.7917 4.1665 19.7917H20.8332C21.4037 19.7917 21.8748 19.3205 21.8748 18.75V6.25C21.8748 5.67946 21.4037 5.20833 20.8332 5.20833H4.1665ZM1.0415 6.25C1.0415 4.52887 2.44537 3.125 4.1665 3.125H20.8332C22.5543 3.125 23.9582 4.52887 23.9582 6.25V18.75C23.9582 20.4711 22.5543 21.875 20.8332 21.875H4.1665C2.44537 21.875 1.0415 20.4711 1.0415 18.75V6.25Z" fill="#FF9901"/>
<path fill-rule="evenodd" clip-rule="evenodd" d="M1.22989 5.65241C1.5598 5.18111 2.20932 5.06649 2.68062 5.3964L12.4999 12.2699L22.3192 5.3964C22.7905 5.06649 23.4401 5.18111 23.77 5.65241C24.0999 6.12371 23.9853 6.77322 23.514 7.10313L13.0973 14.3948C12.7386 14.6459 12.2612 14.6459 11.9026 14.3948L1.4859 7.10313C1.0146 6.77322 0.899983 6.12371 1.22989 5.65241Z" fill="#FF9901"/>
</svg>
