<svg width="25" height="25" viewBox="0 0 25 25" fill="none" xmlns="http://www.w3.org/2000/svg">
<path fill-rule="evenodd" clip-rule="evenodd" d="M12.5002 2.08333C10.29 2.08333 8.17041 2.96131 6.60761 4.52411C5.0448 6.08691 4.16683 8.20653 4.16683 10.4167C4.16683 13.6438 6.26656 16.7753 8.56886 19.2055C9.69872 20.3981 10.8321 21.3744 11.6842 22.053C12.0013 22.3055 12.2783 22.5158 12.5002 22.6798C12.722 22.5158 12.999 22.3055 13.3161 22.053C14.1682 21.3744 15.3016 20.3981 16.4315 19.2055C18.7338 16.7753 20.8335 13.6438 20.8335 10.4167C20.8335 8.20653 19.9555 6.08691 18.3927 4.52411C16.8299 2.96131 14.7103 2.08333 12.5002 2.08333ZM12.5002 23.9583C11.9224 24.8251 11.9221 24.8249 11.9218 24.8247L11.9188 24.8227L11.9119 24.818L11.888 24.8019C11.8677 24.7881 11.8388 24.7683 11.8018 24.7427C11.7278 24.6915 11.6215 24.6168 11.4874 24.52C11.2195 24.3265 10.8401 24.044 10.3864 23.6827C9.48072 22.9615 8.27036 21.9196 7.05646 20.6383C4.67127 18.1206 2.0835 14.4812 2.0835 10.4167C2.0835 7.654 3.18096 5.00448 5.13447 3.05097C7.08797 1.09747 9.73749 0 12.5002 0C15.2628 0 17.9124 1.09747 19.8659 3.05097C21.8194 5.00448 22.9168 7.654 22.9168 10.4167C22.9168 14.4812 20.3291 18.1206 17.9439 20.6383C16.73 21.9196 15.5196 22.9615 14.6139 23.6827C14.1602 24.044 13.7808 24.3265 13.5129 24.52C13.3788 24.6168 13.2725 24.6915 13.1985 24.7427C13.1615 24.7683 13.1326 24.7881 13.1123 24.8019L13.0885 24.818L13.0815 24.8227L13.0793 24.8242C13.079 24.8244 13.078 24.8251 12.5002 23.9583ZM12.5002 23.9583L13.078 24.8251C12.7281 25.0583 12.2717 25.0579 11.9218 24.8247L12.5002 23.9583Z" fill="#FF9901"/>
<path fill-rule="evenodd" clip-rule="evenodd" d="M12.5002 8.33333C11.3496 8.33333 10.4168 9.26607 10.4168 10.4167C10.4168 11.5673 11.3496 12.5 12.5002 12.5C13.6508 12.5 14.5835 11.5673 14.5835 10.4167C14.5835 9.26607 13.6508 8.33333 12.5002 8.33333ZM8.3335 10.4167C8.3335 8.11548 10.199 6.25 12.5002 6.25C14.8013 6.25 16.6668 8.11548 16.6668 10.4167C16.6668 12.7179 14.8013 14.5833 12.5002 14.5833C10.199 14.5833 8.3335 12.7179 8.3335 10.4167Z" fill="#FF9901"/>
</svg>
