<svg width="25" height="25" viewBox="0 0 25 25" fill="none" xmlns="http://www.w3.org/2000/svg">
<path fill-rule="evenodd" clip-rule="evenodd" d="M2.08337 12.4997C2.08337 11.9244 2.54974 11.458 3.12504 11.458H21.875C22.4503 11.458 22.9167 11.9244 22.9167 12.4997C22.9167 13.075 22.4503 13.5413 21.875 13.5413H3.12504C2.54974 13.5413 2.08337 13.075 2.08337 12.4997Z" fill="#FF9901"/>
<path fill-rule="evenodd" clip-rule="evenodd" d="M2.08337 6.24967C2.08337 5.67438 2.54974 5.20801 3.12504 5.20801H21.875C22.4503 5.20801 22.9167 5.67438 22.9167 6.24967C22.9167 6.82497 22.4503 7.29134 21.875 7.29134H3.12504C2.54974 7.29134 2.08337 6.82497 2.08337 6.24967Z" fill="#FF9901"/>
<path fill-rule="evenodd" clip-rule="evenodd" d="M2.08337 18.7497C2.08337 18.1744 2.54974 17.708 3.12504 17.708H21.875C22.4503 17.708 22.9167 18.1744 22.9167 18.7497C22.9167 19.325 22.4503 19.7913 21.875 19.7913H3.12504C2.54974 19.7913 2.08337 19.325 2.08337 18.7497Z" fill="#FF9901"/>
</svg>
