<svg width="25" height="25" viewBox="0 0 25 25" fill="none" xmlns="http://www.w3.org/2000/svg">
<path fill-rule="evenodd" clip-rule="evenodd" d="M12.5 1.04199C12.8965 1.04199 13.2586 1.26707 13.4341 1.62259L16.4107 7.65289L23.0673 8.62586C23.4596 8.68319 23.7853 8.9582 23.9075 9.33529C24.0298 9.71238 23.9274 10.1262 23.6435 10.4028L18.8276 15.0934L19.9642 21.7201C20.0312 22.1109 19.8705 22.5059 19.5497 22.7389C19.2289 22.972 18.8036 23.0027 18.4526 22.8181L12.5 19.6877L6.54733 22.8181C6.19638 23.0027 5.77108 22.972 5.45027 22.7389C5.12946 22.5059 4.96878 22.1109 5.03581 21.7201L6.17236 15.0934L1.35652 10.4028C1.07254 10.1262 0.970173 9.71238 1.09244 9.33529C1.21471 8.9582 1.54042 8.68319 1.93267 8.62586L8.5893 7.65289L11.5659 1.62259C11.7414 1.26707 12.1035 1.04199 12.5 1.04199ZM12.5 4.43705L10.2153 9.06556C10.0637 9.37269 9.7708 9.58567 9.43189 9.63521L4.32125 10.3822L8.01846 13.9833C8.26416 14.2226 8.37631 14.5675 8.31833 14.9056L7.44601 19.9917L12.0151 17.5888C12.3187 17.4292 12.6813 17.4292 12.9848 17.5888L17.554 19.9917L16.6816 14.9056C16.6237 14.5675 16.7358 14.2226 16.9815 13.9833L20.6787 10.3822L15.5681 9.63521C15.2292 9.58567 14.9363 9.37269 14.7847 9.06556L12.5 4.43705Z" fill="#FF9901"/>
</svg>
