<svg width="25" height="25" viewBox="0 0 25 25" fill="none" xmlns="http://www.w3.org/2000/svg">
<path fill-rule="evenodd" clip-rule="evenodd" d="M4.65049 16.1085C5.62724 15.1317 6.952 14.583 8.33333 14.583H16.6667C18.048 14.583 19.3728 15.1317 20.3495 16.1085C21.3263 17.0852 21.875 18.41 21.875 19.7913V21.8747C21.875 22.45 21.4086 22.9163 20.8333 22.9163C20.258 22.9163 19.7917 22.45 19.7917 21.8747V19.7913C19.7917 18.9625 19.4624 18.1677 18.8764 17.5816C18.2903 16.9956 17.4955 16.6663 16.6667 16.6663H8.33333C7.50453 16.6663 6.70968 16.9956 6.12362 17.5816C5.53757 18.1677 5.20833 18.9625 5.20833 19.7913V21.8747C5.20833 22.45 4.74196 22.9163 4.16667 22.9163C3.59137 22.9163 3.125 22.45 3.125 21.8747V19.7913C3.125 18.41 3.67373 17.0852 4.65049 16.1085Z" fill="#FF9901"/>
<path fill-rule="evenodd" clip-rule="evenodd" d="M3.125 21.75C3.125 21.0596 3.68464 20.5 4.375 20.5H20.625C21.3154 20.5 21.875 21.0596 21.875 21.75C21.875 22.4404 21.3154 23 20.625 23H4.375C3.68464 23 3.125 22.4404 3.125 21.75Z" fill="#FF9901"/>
<path fill-rule="evenodd" clip-rule="evenodd" d="M12.4998 4.16634C10.7739 4.16634 9.37484 5.56545 9.37484 7.29134C9.37484 9.01723 10.7739 10.4163 12.4998 10.4163C14.2257 10.4163 15.6248 9.01723 15.6248 7.29134C15.6248 5.56545 14.2257 4.16634 12.4998 4.16634ZM7.2915 7.29134C7.2915 4.41486 9.62335 2.08301 12.4998 2.08301C15.3763 2.08301 17.7082 4.41486 17.7082 7.29134C17.7082 10.1678 15.3763 12.4997 12.4998 12.4997C9.62335 12.4997 7.2915 10.1678 7.2915 7.29134Z" fill="#FF9901"/>
</svg>
